Pontano.ufo
<glyph name="exclam" format="1">
  <advance width="428"/>
  <unicode hex="0021"/>
  <outline>
    <contour>
      <point x="182" y="305" type="line"/>
      <point x="129" y="1464" type="line"/>
      <point x="298" y="1464" type="line"/>
      <point x="241" y="305" type="line"/>
    </contour>
    <contour>
      <point x="138" y="197" type="line"/>
      <point x="302" y="197" type="line"/>
      <point x="302" y="0" type="line"/>
      <point x="138" y="0" type="line"/>
    </contour>
  </outline>
</glyph>
<glyph name="quotedbl" format="1">
  <advance width="650"/>
  <unicode hex="0022"/>
  <outline>
    <contour>
      <point x="527" y="1464" type="line"/>
      <point x="476" y="1000" type="line"/>
      <point x="425" y="1000" type="line"/>
      <point x="373" y="1464" type="line"/>
    </contour>
    <contour>
      <point x="123" y="1464" type="line"/>
      <point x="277" y="1464" type="line"/>
      <point x="226" y="1000" type="line"/>
      <point x="175" y="1000" type="line"/>
    </contour>
  </outline>
</glyph>
<glyph name="numbersign" format="1">
  <advance width="1221"/>
  <unicode hex="0023"/>
  <outline>
    <contour>
      <point x="51" y="551" type="line"/>
      <point x="80" y="649" type="line"/>
      <point x="1106" y="649" type="line"/>
      <point x="1077" y="551" type="line"/>
    </contour>
    <contour>
      <point x="1041" y="1464" type="line"/>
      <point x="740" y="1" type="line"/>
      <point x="606" y="0" type="line"/>
      <point x="902" y="1463" type="line"/>
    </contour>
    <contour>
      <point x="278" y="1" type="line"/>
      <point x="144" y="0" type="line"/>
      <point x="440" y="1463" type="line"/>
      <point x="579" y="1464" type="line"/>
    </contour>
    <contour>
      <point x="149" y="999" type="line"/>
      <point x="1175" y="999" type="line"/>
      <point x="1146" y="901" type="line"/>
      <point x="120" y="901" type="line"/>
    </contour>
    <contour>
      <point x="204" y="0" type="line"/>
    </contour>
    <contour>
      <point x="204" y="0" type="line"/>
    </contour>
    <contour>
      <point x="619" y="0" type="line"/>
    </contour>
    <contour>
      <point x="619" y="0" type="line"/>
    </contour>
    <contour>
      <point x="619" y="0" type="line"/>
    </contour>
    <contour>
      <point x="619" y="0" type="line"/>
    </contour>
  </outline>
</glyph>
<glyph name="dollar" format="1">
  <advance width="1323"/>
  <unicode hex="0024"/>
  <outline>
    <contour>
      <point x="676" y="1482" type="curve" smooth="yes"/>
      <point x="908" y="1482"/>
      <point x="1060" y="1404"/>
      <point x="1178" y="1224" type="curve"/>
      <point x="1074" y="1148" type="line"/>
      <point x="1016" y="1253"/>
      <point x="900" y="1364"/>
      <point x="692" y="1364" type="curve" smooth="yes"/>
      <point x="499" y="1364"/>
      <point x="337" y="1298"/>
      <point x="337" y="1128" type="curve" smooth="yes"/>
      <point x="337" y="931"/>
      <point x="593" y="895"/>
      <point x="766" y="829" type="curve" smooth="yes"/>
      <point x="1035" y="726"/>
      <point x="1211" y="646"/>
      <point x="1211" y="393" type="curve" smooth="yes"/>
      <point x="1211" y="126"/>
      <point x="1001" y="-25"/>
      <point x="675" y="-25" type="curve" smooth="yes"/>
      <point x="450" y="-25"/>
      <point x="154" y="69"/>
      <point x="98" y="373" type="curve"/>
      <point x="221" y="426" type="line"/>
      <point x="281" y="205"/>
      <point x="437" y="101"/>
      <point x="684" y="101" type="curve" smooth="yes"/>
      <point x="863" y="101"/>
      <point x="1058" y="167"/>
      <point x="1058" y="388" type="curve" smooth="yes"/>
      <point x="1058" y="584"/>
      <point x="902" y="633"/>
      <point x="618" y="731" type="curve" smooth="yes"/>
      <point x="408" y="804"/>
      <point x="184" y="877"/>
      <point x="184" y="1116" type="curve" smooth="yes"/>
      <point x="184" y="1369"/>
      <point x="430" y="1482"/>
    </contour>
    <contour>
      <point x="642" y="-201" type="line"/>
      <point x="642" y="1674" type="line"/>
      <point x="731" y="1674" type="line"/>
      <point x="731" y="-201" type="line"/>
    </contour>
  </outline>
</glyph>
<glyph name="ampersand" format="1">
  <advance width="1443"/>
  <unicode hex="0026"/>
  <outline>
    <contour>
      <point x="1007" y="1193" type="curve" smooth="yes"/>
      <point x="1007" y="1033"/>
      <point x="872" y="928"/>
      <point x="679" y="832" type="curve"/>
      <point x="1085" y="381" type="line"/>
      <point x="1146" y="481"/>
      <point x="1170" y="655"/>
      <point x="1192" y="810" type="curve"/>
      <point x="1322" y="791" type="line"/>
      <point x="1296" y="576"/>
      <point x="1243" y="406"/>
      <point x="1180" y="285" type="curve"/>
      <point x="1268" y="194"/>
      <point x="1309" y="139"/>
      <point x="1404" y="57" type="curve"/>
      <point x="1323" y="-21" type="line"/>
      <point x="1239" y="47"/>
      <point x="1171" y="123"/>
      <point x="1099" y="195" type="curve"/>
      <point x="985.992" y="74.8649"/>
      <point x="796.072" y="-26"/>
      <point x="571" y="-26" type="curve" smooth="yes"/>
      <point x="281" y="-26"/>
      <point x="96" y="172"/>
      <point x="96" y="413" type="curve" smooth="yes"/>
      <point x="96" y="632"/>
      <point x="256" y="783"/>
      <point x="482" y="873" type="curve"/>
      <point x="378" y="989"/>
      <point x="323" y="1089"/>
      <point x="323" y="1210" type="curve" smooth="yes"/>
      <point x="323" y="1391"/>
      <point x="485" y="1489"/>
      <point x="663" y="1489" type="curve" smooth="yes"/>
      <point x="841" y="1489"/>
      <point x="1007" y="1380"/>
    </contour>
    <contour>
      <point x="457" y="1209" type="curve" smooth="yes"/>
      <point x="457" y="1120"/>
      <point x="516" y="1015"/>
      <point x="607" y="917" type="curve"/>
      <point x="800" y="1014"/>
      <point x="880" y="1089"/>
      <point x="880" y="1194" type="curve" smooth="yes"/>
      <point x="880" y="1302"/>
      <point x="775" y="1391"/>
      <point x="668" y="1391" type="curve" smooth="yes"/>
      <point x="559" y="1391"/>
      <point x="457" y="1324"/>
    </contour>
    <contour>
      <point x="242" y="419" type="curve" smooth="yes"/>
      <point x="242" y="254"/>
      <point x="339" y="85"/>
      <point x="592" y="85" type="curve" smooth="yes"/>
      <point x="732" y="85"/>
      <point x="906" y="150"/>
      <point x="1013" y="283" type="curve"/>
      <point x="868" y="445"/>
      <point x="688" y="635"/>
      <point x="555" y="785" type="curve"/>
      <point x="328" y="676"/>
      <point x="242" y="566"/>
    </contour>
  </outline>
</glyph>
<glyph name="quotesingle" format="1">
  <advance width="436"/>
  <unicode hex="0027"/>
  <outline>
    <contour>
      <point x="128" y="1476" type="curve"/>
      <point x="146" y="1640" type="line"/>
      <point x="320" y="1640" type="line"/>
      <point x="316" y="1460"/>
      <point x="319" y="1278"/>
      <point x="159" y="1165" type="curve"/>
      <point x="110" y="1228" type="line"/>
      <point x="135" y="1251"/>
      <point x="186" y="1318"/>
      <point x="189" y="1438" type="curve"/>
      <point x="169" y="1450"/>
      <point x="149" y="1464"/>
    </contour>
  </outline>
</glyph>
<glyph name="parenleft" format="1">
  <advance width="602"/>
  <unicode hex="0028"/>
  <outline>
    <contour>
      <point x="523" y="1547" type="curve"/>
      <point x="560" y="1452" type="line"/>
      <point x="290" y="1376"/>
      <point x="185" y="1117"/>
      <point x="185" y="703" type="curve" smooth="yes"/>
      <point x="185" y="288"/>
      <point x="291" y="29"/>
      <point x="560" y="-43" type="curve"/>
      <point x="523" y="-140" type="line"/>
      <point x="231" y="-70"/>
      <point x="34" y="164"/>
      <point x="34" y="703" type="curve" smooth="yes"/>
      <point x="34" y="1242"/>
      <point x="232" y="1478"/>
    </contour>
  </outline>
</glyph>
<glyph name="parenright" format="1">
  <advance width="602"/>
  <unicode hex="0029"/>
  <outline>
    <contour>
      <point x="79" y="-140" type="curve"/>
      <point x="42" y="-45" type="line"/>
      <point x="312" y="31"/>
      <point x="417" y="290"/>
      <point x="417" y="704" type="curve" smooth="yes"/>
      <point x="417" y="1119"/>
      <point x="311" y="1378"/>
      <point x="42" y="1450" type="curve"/>
      <point x="79" y="1547" type="line"/>
      <point x="371" y="1477"/>
      <point x="568" y="1243"/>
      <point x="568" y="704" type="curve" smooth="yes"/>
      <point x="568" y="165"/>
      <point x="370" y="-71"/>
    </contour>
  </outline>
</glyph>
<glyph name="asterisk" format="1">
  <advance width="826"/>
  <unicode hex="002A"/>
  <outline>
    <contour>
      <point x="463" y="762" type="line"/>
      <point x="363" y="762" type="line"/>
      <point x="373" y="1049" type="line"/>
      <point x="108" y="894" type="line"/>
      <point x="61" y="982" type="line"/>
      <point x="336" y="1112" type="line"/>
      <point x="60" y="1242" type="line"/>
      <point x="107" y="1330" type="line"/>
      <point x="373" y="1175" type="line"/>
      <point x="363" y="1463" type="line"/>
      <point x="463" y="1463" type="line"/>
      <point x="453" y="1176" type="line"/>
      <point x="718" y="1331" type="line"/>
      <point x="765" y="1243" type="line"/>
      <point x="490" y="1113" type="line"/>
      <point x="766" y="983" type="line"/>
      <point x="719" y="895" type="line"/>
      <point x="453" y="1050" type="line"/>
    </contour>
  </outline>
</glyph>
<glyph name="plus" format="1">
  <advance width="860"/>
  <unicode hex="002B"/>
  <outline>
    <contour>
      <point x="130" y="673" type="line"/>
      <point x="130" y="773" type="line"/>
      <point x="379" y="773" type="line"/>
      <point x="379" y="1023" type="line"/>
      <point x="481" y="1023" type="line"/>
      <point x="481" y="773" type="line"/>
      <point x="730" y="773" type="line"/>
      <point x="730" y="673" type="line"/>
      <point x="481" y="673" type="line"/>
      <point x="481" y="423" type="line"/>
      <point x="379" y="423" type="line"/>
      <point x="379" y="673" type="line"/>
    </contour>
  </outline>
</glyph>
<glyph name="comma" format="1">
  <advance width="445"/>
  <unicode hex="002C"/>
  <outline>
    <contour>
      <point x="134" y="219" type="line"/>
      <point x="325" y="219" type="line"/>
      <point x="324" y="134" type="line"/>
      <point x="319" y="-24"/>
      <point x="295" y="-163"/>
      <point x="163" y="-254" type="curve"/>
      <point x="114" y="-192" type="line"/>
      <point x="139" y="-172"/>
      <point x="191" y="-105"/>
      <point x="194" y="16" type="curve"/>
      <point x="134" y="29" type="line"/>
    </contour>
  </outline>
</glyph>
<glyph name="slash" format="1">
  <advance width="592"/>
  <unicode hex="002F"/>
  <outline>
    <contour>
      <point x="152" y="-35" type="line"/>
      <point x="47" y="-5" type="line"/>
      <point x="444" y="1464" type="line"/>
      <point x="548" y="1434" type="line"/>
    </contour>
  </outline>
</glyph>
<glyph name="zero" format="1">
  <advance width="1445"/>
  <unicode hex="0030"/>
  <outline>
    <contour>
      <point x="722" y="-25" type="curve" smooth="yes"/>
      <point x="1063" y="-25"/>
      <point x="1231" y="285"/>
      <point x="1231" y="724" type="curve" smooth="yes"/>
      <point x="1231" y="1164"/>
      <point x="1062" y="1491"/>
      <point x="722" y="1491" type="curve" smooth="yes"/>
      <point x="382" y="1491"/>
      <point x="213" y="1164"/>
      <point x="213" y="724" type="curve" smooth="yes"/>
      <point x="213" y="285"/>
      <point x="381" y="-25"/>
    </contour>
    <contour>
      <point x="722" y="1374" type="curve" smooth="yes"/>
      <point x="955" y="1374"/>
      <point x="1076" y="1101"/>
      <point x="1076" y="724" type="curve" smooth="yes"/>
      <point x="1076" y="360"/>
      <point x="963" y="93"/>
      <point x="722" y="93" type="curve" smooth="yes"/>
      <point x="481" y="93"/>
      <point x="368" y="360"/>
      <point x="368" y="724" type="curve" smooth="yes"/>
      <point x="368" y="1101"/>
      <point x="489" y="1374"/>
    </contour>
  </outline>
</glyph>
<glyph name="one" format="1">
  <advance width="592"/>
  <unicode hex="0031"/>
  <outline>
    <contour>
      <point x="283" y="1328" type="line"/>
      <point x="283" y="0" type="line"/>
      <point x="429" y="0" type="line"/>
      <point x="429" y="1464" type="line"/>
      <point x="300" y="1464" type="line"/>
      <point x="53" y="1364" type="line"/>
      <point x="97" y="1248" type="line"/>
    </contour>
  </outline>
</glyph>
<glyph name="two" format="1">
  <advance width="1247"/>
  <unicode hex="0032"/>
  <outline>
    <contour>
      <point x="125" y="1135" type="curve"/>
      <point x="254" y="1083" type="line"/>
      <point x="337" y="1265"/>
      <point x="438" y="1370"/>
      <point x="641" y="1370" type="curve" smooth="yes"/>
      <point x="801" y="1370"/>
      <point x="949" y="1263"/>
      <point x="949" y="1062" type="curve" smooth="yes"/>
      <point x="949" y="627"/>
      <point x="185" y="481"/>
      <point x="169" y="0" type="curve"/>
      <point x="1088" y="0" type="line"/>
      <point x="1088" y="121" type="line"/>
      <point x="349" y="121" type="line"/>
      <point x="479" y="448"/>
      <point x="1109" y="590"/>
      <point x="1109" y="1051" type="curve" smooth="yes"/>
      <point x="1109" y="1354"/>
      <point x="872" y="1492"/>
      <point x="625" y="1492" type="curve" smooth="yes"/>
      <point x="400" y="1492"/>
      <point x="216" y="1392"/>
    </contour>
  </outline>
</glyph>
<glyph name="three" format="1">
  <advance width="1133"/>
  <unicode hex="0033"/>
  <outline>
    <contour>
      <point x="943" y="1137" type="curve" smooth="yes"/>
      <point x="943" y="1318"/>
      <point x="800" y="1493"/>
      <point x="550" y="1493" type="curve" smooth="yes"/>
      <point x="380" y="1493"/>
      <point x="215" y="1408"/>
      <point x="153" y="1239" type="curve"/>
      <point x="261" y="1175" type="line"/>
      <point x="325" y="1314"/>
      <point x="445" y="1381"/>
      <point x="557" y="1381" type="curve" smooth="yes"/>
      <point x="723" y="1381"/>
      <point x="800" y="1261"/>
      <point x="800" y="1140" type="curve" smooth="yes"/>
      <point x="800" y="1006"/>
      <point x="708" y="868"/>
      <point x="458" y="864" type="curve"/>
      <point x="460" y="744" type="line"/>
      <point x="489" y="748"/>
      <point x="519" y="751"/>
      <point x="549" y="751" type="curve" smooth="yes"/>
      <point x="756" y="751"/>
      <point x="865" y="573"/>
      <point x="865" y="396" type="curve" smooth="yes"/>
      <point x="865" y="245"/>
      <point x="759" y="94"/>
      <point x="550" y="94" type="curve" smooth="yes"/>
      <point x="394" y="94"/>
      <point x="285" y="185"/>
      <point x="230" y="358" type="curve"/>
      <point x="110" y="317" type="line"/>
      <point x="171" y="70"/>
      <point x="368" y="-24"/>
      <point x="562" y="-24" type="curve" smooth="yes"/>
      <point x="855" y="-24"/>
      <point x="1014" y="196"/>
      <point x="1014" y="403" type="curve" smooth="yes"/>
      <point x="1014" y="581"/>
      <point x="920" y="744"/>
      <point x="720" y="813" type="curve"/>
      <point x="865" y="879"/>
      <point x="943" y="1000"/>
    </contour>
  </outline>
</glyph>
<glyph name="four" format="1">
  <advance width="1287"/>
  <unicode hex="0034"/>
  <outline>
    <contour>
      <point x="151" y="464" type="line"/>
      <point x="693" y="1464" type="line"/>
      <point x="897" y="1464" type="line"/>
      <point x="897" y="468" type="line"/>
      <point x="1152" y="468" type="line"/>
      <point x="1152" y="358" type="line"/>
      <point x="898" y="358" type="line"/>
      <point x="898" y="0" type="line"/>
      <point x="758" y="0" type="line"/>
      <point x="758" y="358" type="line"/>
      <point x="151" y="358" type="line"/>
    </contour>
    <contour>
      <point x="758" y="1332" type="line"/>
      <point x="312" y="468" type="line"/>
      <point x="758" y="468" type="line"/>
    </contour>
  </outline>
</glyph>
<glyph name="five" format="1">
  <advance width="1163"/>
  <unicode hex="0035"/>
  <outline>
    <contour>
      <point x="593.784" y="952" type="curve" smooth="yes"/>
      <point x="916.488" y="952"/>
      <point x="1058.21" y="726.577"/>
      <point x="1058.21" y="485.326" type="curve" smooth="yes"/>
      <point x="1058.21" y="206.602"/>
      <point x="878.145" y="-22.0068"/>
      <point x="569.05" y="-22.0068" type="curve" smooth="yes"/>
      <point x="351.771" y="-22.0068"/>
      <point x="175.91" y="77.9033"/>
      <point x="85" y="309.158" type="curve"/>
      <point x="209.128" y="359.186" type="line"/>
      <point x="284.631" y="195.656"/>
      <point x="413.01" y="95"/>
      <point x="560.203" y="95" type="curve" smooth="yes"/>
      <point x="788.426" y="95"/>
      <point x="909.062" y="288.874"/>
      <point x="909.062" y="477" type="curve" smooth="yes"/>
      <point x="909.062" y="656.062"/>
      <point x="803.241" y="832"/>
      <point x="587.858" y="832" type="curve" smooth="yes"/>
      <point x="486.834" y="832"/>
      <point x="372.175" y="792.202"/>
      <point x="261.942" y="708.672" type="curve"/>
      <point x="171.282" y="768.47" type="line"/>
      <point x="266.69" y="1488.1" type="line"/>
      <point x="968.062" y="1488.1" type="line"/>
      <point x="968.062" y="1361.1" type="line"/>
      <point x="397.627" y="1361.1" type="line"/>
      <point x="329.306" y="879.966" type="line"/>
      <point x="334.25" y="882.276" type="line"/>
      <point x="424.425" y="931.921"/>
      <point x="513.576" y="952"/>
    </contour>
  </outline>
</glyph>
<glyph name="six" format="1">
  <advance width="1228"/>
  <unicode hex="0036"/>
  <outline>
    <contour>
      <point x="303.244" y="827.73" type="curve"/>
      <point x="407.134" y="902.647"/>
      <point x="521.09" y="946"/>
      <point x="634.54" y="946" type="curve" smooth="yes"/>
      <point x="881.344" y="946"/>
      <point x="1096" y="789.455"/>
      <point x="1096" y="484" type="curve" smooth="yes"/>
      <point x="1096" y="233.845"/>
      <point x="932.882" y="-24"/>
      <point x="635.515" y="-24" type="curve" smooth="yes"/>
      <point x="293.773" y="-24"/>
      <point x="137" y="252.885"/>
      <point x="137" y="700" type="curve" smooth="yes"/>
      <point x="137" y="1201.43"/>
      <point x="351.896" y="1491"/>
      <point x="654.043" y="1491" type="curve" smooth="yes"/>
      <point x="752.101" y="1491"/>
      <point x="859.571" y="1460.24"/>
      <point x="975.597" y="1396.23" type="curve"/>
      <point x="934.8" y="1284.71" type="line"/>
      <point x="832.038" y="1342.73"/>
      <point x="737.675" y="1372"/>
      <point x="655.992" y="1372" type="curve" smooth="yes"/>
      <point x="452.629" y="1372"/>
      <point x="325.535" y="1194.6"/>
    </contour>
    <contour>
      <point x="297.129" y="698.104" type="curve"/>
      <point x="296.088" y="674.052"/>
      <point x="296" y="630.186"/>
      <point x="296" y="607" type="curve" smooth="yes"/>
      <point x="296" y="350.45"/>
      <point x="366.418" y="92"/>
      <point x="636.49" y="92" type="curve" smooth="yes"/>
      <point x="802.15" y="92"/>
      <point x="945" y="234.383"/>
      <point x="945" y="480" type="curve" smooth="yes"/>
      <point x="945" y="732.049"/>
      <point x="804.972" y="827"/>
      <point x="633.565" y="827" type="curve" smooth="yes"/>
      <point x="523.114" y="827"/>
      <point x="397.092" y="772.797"/>
    </contour>
  </outline>
</glyph>
<glyph name="seven" format="1">
  <advance width="948"/>
  <unicode hex="0037"/>
  <outline>
    <contour>
      <point x="148" y="1348" type="line"/>
      <point x="136" y="1464" type="line"/>
      <point x="874" y="1464" type="line"/>
      <point x="874" y="1351" type="line"/>
      <point x="317" y="-1" type="line"/>
      <point x="159" y="1" type="line"/>
      <point x="722" y="1348" type="line"/>
    </contour>
  </outline>
</glyph>
<glyph name="eight" format="1">
  <advance width="1236"/>
  <unicode hex="0038"/>
  <outline>
    <contour>
      <point x="530.482" y="703.271" type="curve"/>
      <point x="376.294" y="610.064"/>
      <point x="296.44" y="476.682"/>
      <point x="296.44" y="357" type="curve" smooth="yes"/>
      <point x="296.44" y="208.405"/>
      <point x="410.083" y="83"/>
      <point x="615.515" y="83" type="curve" smooth="yes"/>
      <point x="772.385" y="83"/>
      <point x="946.44" y="182.394"/>
      <point x="946.44" y="368" type="curve" smooth="yes"/>
      <point x="946.44" y="606.451"/>
      <point x="724.9" y="671.218"/>
    </contour>
    <contour>
      <point x="138" y="340.973" type="curve" smooth="yes"/>
      <point x="138" y="492.418"/>
      <point x="226.422" y="630.034"/>
      <point x="430.311" y="748.531" type="curve"/>
      <point x="316.611" y="801.564"/>
      <point x="149.44" y="907.049"/>
      <point x="149.44" y="1083" type="curve" smooth="yes"/>
      <point x="149.44" y="1361.8"/>
      <point x="387.97" y="1492"/>
      <point x="626.242" y="1492" type="curve" smooth="yes"/>
      <point x="870.792" y="1492"/>
      <point x="1098.44" y="1364.88"/>
      <point x="1098.44" y="1088" type="curve" smooth="yes"/>
      <point x="1098.44" y="891.679"/>
      <point x="888.604" y="773.458"/>
      <point x="799.603" y="740.927" type="curve"/>
      <point x="1055.28" y="618.345"/>
      <point x="1093.81" y="505.949"/>
      <point x="1093.81" y="364.823" type="curve" smooth="yes"/>
      <point x="1093.81" y="161.034"/>
      <point x="916.971" y="-24.0039"/>
      <point x="601.34" y="-24.0039" type="curve" smooth="yes"/>
      <point x="313.751" y="-24.0039"/>
      <point x="138" y="145.047"/>
    </contour>
    <contour>
      <point x="693.647" y="789.827" type="curve"/>
      <point x="788.018" y="837.045"/>
      <point x="931.44" y="923.072"/>
      <point x="931.44" y="1092" type="curve" smooth="yes"/>
      <point x="931.44" y="1286.35"/>
      <point x="790.219" y="1379"/>
      <point x="626.242" y="1379" type="curve" smooth="yes"/>
      <point x="473.349" y="1379"/>
      <point x="307.258" y="1297.92"/>
      <point x="307.258" y="1096.65" type="curve" smooth="yes"/>
      <point x="307.258" y="893.5"/>
      <point x="481.519" y="814.108"/>
    </contour>
  </outline>
</glyph>
<glyph name="nine" format="1">
  <advance width="1224"/>
  <unicode hex="0039"/>
  <outline>
    <contour>
      <point x="927" y="643" type="curve"/>
      <point x="826" y="569"/>
      <point x="716.66" y="525"/>
      <point x="606.187" y="525" type="curve" smooth="yes"/>
      <point x="353.543" y="525"/>
      <point x="134" y="681.656"/>
      <point x="134" y="987" type="curve" smooth="yes"/>
      <point x="134" y="1237.49"/>
      <point x="271.634" y="1492.04"/>
      <point x="601.531" y="1492.04" type="curve" smooth="yes"/>
      <point x="939.362" y="1492.04"/>
      <point x="1088" y="1236"/>
      <point x="1088" y="771" type="curve" smooth="yes"/>
      <point x="1088" y="256"/>
      <point x="875.109" y="-19"/>
      <point x="570.106" y="-19" type="curve" smooth="yes"/>
      <point x="471.066" y="-19"/>
      <point x="361.371" y="11.458"/>
      <point x="242.421" y="74.8223" type="curve"/>
      <point x="283.228" y="186.358" type="line"/>
      <point x="386.871" y="129.438"/>
      <point x="479.482" y="99"/>
      <point x="565.23" y="99" type="curve" smooth="yes"/>
      <point x="769.72" y="99"/>
      <point x="905" y="279"/>
    </contour>
    <contour>
      <point x="933" y="773" type="curve"/>
      <point x="934" y="797"/>
      <point x="934" y="841"/>
      <point x="934" y="864" type="curve" smooth="yes"/>
      <point x="934" y="1118"/>
      <point x="862.569" y="1374"/>
      <point x="592.535" y="1374" type="curve" smooth="yes"/>
      <point x="426.858" y="1374"/>
      <point x="285" y="1233.43"/>
      <point x="285" y="991" type="curve" smooth="yes"/>
      <point x="285" y="738.777"/>
      <point x="430.079" y="644"/>
      <point x="608.137" y="644" type="curve" smooth="yes"/>
      <point x="714.683" y="644"/>
      <point x="836" y="698"/>
    </contour>
  </outline>
</glyph>
<glyph name="semicolon" format="1">
  <advance width="478"/>
  <unicode hex="003B"/>
  <outline>
    <contour>
      <point x="155" y="235" type="curve"/>
      <point x="330" y="235" type="line"/>
      <point x="329" y="157" type="line"/>
      <point x="324" y="11"/>
      <point x="299" y="-122"/>
      <point x="164" y="-200" type="curve"/>
      <point x="144" y="-126" type="line"/>
      <point x="157" y="-119"/>
      <point x="206" y="-66"/>
      <point x="209" y="40" type="curve"/>
      <point x="203" y="57"/>
      <point x="153" y="50"/>
      <point x="147" y="73" type="curve"/>
      <point x="150" y="128"/>
      <point x="153" y="183"/>
    </contour>
    <contour>
      <point x="153" y="846" type="curve"/>
      <point x="208" y="851"/>
      <point x="265" y="854"/>
      <point x="325" y="854" type="curve"/>
      <point x="331" y="784"/>
      <point x="333" y="712"/>
      <point x="333" y="637" type="curve"/>
      <point x="278" y="632"/>
      <point x="220" y="630"/>
      <point x="160" y="630" type="curve"/>
      <point x="155" y="699"/>
      <point x="153" y="771"/>
    </contour>
  </outline>
</glyph>
<glyph name="equal" format="1">
  <advance width="820"/>
  <unicode hex="003D"/>
  <outline>
    <contour>
      <point x="135" y="550" type="line"/>
      <point x="135" y="650" type="line"/>
      <point x="685" y="650" type="line"/>
      <point x="685" y="550" type="line"/>
    </contour>
    <contour>
      <point x="135" y="300" type="line"/>
      <point x="135" y="400" type="line"/>
      <point x="685" y="400" type="line"/>
      <point x="685" y="300" type="line"/>
    </contour>
  </outline>
</glyph>
<glyph name="question" format="1">
  <advance width="1063"/>
  <unicode hex="003F"/>
  <outline>
    <contour>
      <point x="740.00212765" y="1380.0"/>
      <point x="812.0" y="1229.59828516"/>
      <point x="812.0" y="1089.0" type="curve" smooth="yes"/>
      <point x="812.0" y="841.0"/>
      <point x="609.0" y="775.0"/>
      <point x="383.0" y="358.0" type="curve"/>
      <point x="532.0" y="358.0" type="line"/>
      <point x="740.0" y="715.0"/>
      <point x="958.0" y="815.0"/>
      <point x="958.0" y="1094.0" type="curve" smooth="yes"/>
      <point x="958.0" y="1286.00260415"/>
      <point x="832.659663236" y="1491.0"/>
      <point x="514.0" y="1491.0" type="curve" smooth="yes"/>
      <point x="352.0" y="1491.0"/>
      <point x="171.0" y="1439.0"/>
      <point x="52.0" y="1250.0" type="curve"/>
      <point x="151.0" y="1177.0" type="line"/>
      <point x="181.0" y="1224.0"/>
      <point x="286.0" y="1380.0"/>
      <point x="505.0" y="1380.0" type="curve" smooth="yes"/>
    </contour>
    <contour>
      <point x="367.0" y="0.0" type="line"/>
      <point x="531.0" y="0.0" type="line"/>
      <point x="531.0" y="215.0" type="line"/>
      <point x="367.0" y="215.0" type="line"/>
    </contour>
  </outline>
</glyph>
<glyph name="at" format="1">
  <advance width="1009"/>
  <unicode hex="0040"/>
  <outline>
    <contour>
      <point x="124" y="907" type="curve"/>
      <point x="230" y="993"/>
      <point x="360" y="1044"/>
      <point x="512" y="1044" type="curve" smooth="yes"/>
      <point x="754" y="1044"/>
      <point x="888" y="927"/>
      <point x="888" y="673" type="curve" smooth="yes"/>
      <point x="888" y="186" type="line" smooth="yes"/>
      <point x="888" y="125"/>
      <point x="894" y="59"/>
      <point x="898" y="0" type="curve"/>
      <point x="769" y="0" type="line"/>
      <point x="764" y="40"/>
      <point x="750" y="110"/>
      <point x="750" y="110" type="curve"/>
      <point x="641" y="9"/>
      <point x="524" y="-24"/>
      <point x="387" y="-24" type="curve" smooth="yes"/>
      <point x="226" y="-24"/>
      <point x="88" y="79"/>
      <point x="88" y="257" type="curve" smooth="yes"/>
      <point x="88" y="513"/>
      <point x="302" y="579"/>
      <point x="645" y="579" type="curve" smooth="yes"/>
      <point x="746" y="579" type="line"/>
      <point x="746" y="637" type="line" smooth="yes"/>
      <point x="746" y="865.305"/>
      <point x="676.143" y="935"/>
      <point x="504" y="935" type="curve" smooth="yes"/>
      <point x="390" y="935"/>
      <point x="265" y="873"/>
      <point x="193" y="812" type="curve"/>
      <point x="193" y="813"/>
      <point x="140" y="884"/>
    </contour>
    <contour>
      <point x="746" y="483" type="line"/>
      <point x="648" y="483" type="line" smooth="yes"/>
      <point x="429" y="483"/>
      <point x="222" y="450"/>
      <point x="222" y="266" type="curve" smooth="yes"/>
      <point x="222" y="153"/>
      <point x="291" y="81"/>
      <point x="415" y="81" type="curve" smooth="yes"/>
      <point x="536" y="81"/>
      <point x="656" y="143"/>
      <point x="746" y="219" type="curve"/>
    </contour>
    <contour>
      <point x="505" y="1023" type="line" smooth="yes"/>
    </contour>
    <contour>
      <point x="908" y="10" type="line" smooth="yes"/>
    </contour>
  </outline>
</glyph>
<glyph name="A" format="1">
  <advance width="1278"/>
  <unicode hex="0041"/>
  <outline>
    <contour>
      <point x="56" y="0" type="line"/>
      <point x="542" y="1464" type="line"/>
      <point x="734" y="1464" type="line"/>
      <point x="1222" y="0" type="line"/>
      <point x="1072" y="0" type="line"/>
      <point x="938" y="399" type="line"/>
      <point x="330" y="399" type="line"/>
      <point x="202" y="0" type="line"/>
    </contour>
    <contour>
      <point x="633" y="1362" type="curve"/>
      <point x="605" y="1274"/>
      <point x="567" y="1148"/>
      <point x="533" y="1040" type="curve" smooth="yes"/>
      <point x="364" y="508" type="line"/>
      <point x="904" y="508" type="line"/>
      <point x="734" y="1041" type="line" smooth="yes"/>
      <point x="700" y="1147"/>
      <point x="660" y="1274"/>
    </contour>
    <contour>
      <point x="639" y="1464" type="line" smooth="yes"/>
    </contour>
    <contour>
      <point x="1150" y="10" type="line" smooth="yes"/>
    </contour>
    <contour>
      <point x="639" y="1464" type="move" name="top"/>
    </contour>
    <contour>
      <point x="1150" y="10" type="move" name="ogonek"/>
    </contour>
  </outline>
</glyph>
<glyph name="B" format="1">
  <advance width="1284"/>
  <unicode hex="0042"/>
  <outline>
    <contour>
      <point x="285" y="1357" type="line"/>
      <point x="285" y="837" type="line"/>
      <point x="513" y="837" type="line" smooth="yes"/>
      <point x="867" y="837"/>
      <point x="1023" y="851"/>
      <point x="1023" y="1100" type="curve" smooth="yes"/>
      <point x="1023" y="1348"/>
      <point x="821" y="1357"/>
      <point x="586" y="1357" type="curve" smooth="yes"/>
    </contour>
    <contour>
      <point x="286" y="730" type="line"/>
      <point x="286" y="107" type="line"/>
      <point x="600" y="107" type="line" smooth="yes"/>
      <point x="821" y="107"/>
      <point x="1061" y="121"/>
      <point x="1061" y="415" type="curve" smooth="yes"/>
      <point x="1061" y="718"/>
      <point x="841" y="730"/>
      <point x="581" y="730" type="curve" smooth="yes"/>
    </contour>
    <contour>
      <point x="140" y="0" type="line"/>
      <point x="140" y="1464" type="line"/>
      <point x="579" y="1464" type="line" smooth="yes"/>
      <point x="881" y="1464"/>
      <point x="1162" y="1416.25"/>
      <point x="1162" y="1095" type="curve" smooth="yes"/>
      <point x="1162" y="935"/>
      <point x="1087" y="824"/>
      <point x="891" y="790" type="curve"/>
      <point x="1106" y="747"/>
      <point x="1206" y="604"/>
      <point x="1206" y="413" type="curve" smooth="yes"/>
      <point x="1206" y="85"/>
      <point x="1001" y="0"/>
      <point x="543" y="0" type="curve" smooth="yes"/>
    </contour>
  </outline>
</glyph>
<glyph name="C" format="1">
  <advance width="1357"/>
  <unicode hex="0043"/>
  <outline>
    <contour>
      <point x="736" y="1491" type="curve" smooth="yes"/>
      <point x="994" y="1491"/>
      <point x="1195" y="1365"/>
      <point x="1267" y="1102" type="curve"/>
      <point x="1133" y="1071" type="line"/>
      <point x="1087" y="1248"/>
      <point x="962" y="1374"/>
      <point x="731" y="1374" type="curve" smooth="yes"/>
      <point x="386" y="1374"/>
      <point x="265" y="1135"/>
      <point x="265" y="738" type="curve" smooth="yes"/>
      <point x="265" y="311"/>
      <point x="369" y="93"/>
      <point x="734" y="93" type="curve" smooth="yes"/>
      <point x="957" y="93"/>
      <point x="1085" y="205"/>
      <point x="1147" y="377" type="curve"/>
      <point x="1272" y="338" type="line"/>
      <point x="1190" y="90"/>
      <point x="982" y="-25"/>
      <point x="726" y="-25" type="curve" smooth="yes"/>
      <point x="321" y="-25"/>
      <point x="112" y="195"/>
      <point x="112" y="738" type="curve" smooth="yes"/>
      <point x="112" y="1269"/>
      <point x="353" y="1491"/>
    </contour>
    <contour>
      <point x="679" y="1464" type="line" smooth="yes"/>
    </contour>
    <contour>
      <point x="679" y="0" type="line" smooth="yes"/>
    </contour>
    <contour>
      <point x="679" y="1464" type="move" name="top"/>
    </contour>
    <contour>
      <point x="679" y="0" type="move" name="bottom"/>
    </contour>
  </outline>
</glyph>
<glyph name="E" format="1">
  <advance width="1143"/>
  <unicode hex="0045"/>
  <outline>
    <contour>
      <point x="1128" y="0" type="line"/>
      <point x="148" y="0" type="line"/>
      <point x="148" y="1464" type="line"/>
      <point x="1117" y="1464" type="line"/>
      <point x="1117" y="1352" type="line"/>
      <point x="294" y="1352" type="line"/>
      <point x="294" y="838" type="line"/>
      <point x="1010" y="838" type="line"/>
      <point x="1010" y="723" type="line"/>
      <point x="294" y="723" type="line"/>
      <point x="294" y="113" type="line"/>
      <point x="1128" y="113" type="line"/>
    </contour>
    <contour>
      <point x="589" y="1464" type="line"/>
    </contour>
    <contour>
      <point x="589" y="0" type="line"/>
    </contour>
    <contour>
      <point x="1060" y="10" type="line"/>
    </contour>
    <contour>
      <point x="589" y="1464" type="line" smooth="yes"/>
    </contour>
    <contour>
      <point x="589" y="0" type="line" smooth="yes"/>
    </contour>
    <contour>
      <point x="1060" y="10" type="line" smooth="yes"/>
    </contour>
    <contour>
      <point x="572" y="1464" type="move" name="top"/>
    </contour>
    <contour>
      <point x="572" y="0" type="move" name="bottom"/>
    </contour>
    <contour>
      <point x="1029" y="10" type="move" name="ogonek"/>
    </contour>
  </outline>
</glyph>
<glyph name="F" format="1">
  <advance width="1139"/>
  <unicode hex="0046"/>
  <outline>
    <contour>
      <point x="1117" y="1352" type="line"/>
      <point x="294" y="1352" type="line"/>
      <point x="294" y="830" type="line"/>
      <point x="1009" y="830" type="line"/>
      <point x="1009" y="716" type="line"/>
      <point x="294" y="716" type="line"/>
      <point x="294" y="0" type="line"/>
      <point x="148" y="0" type="line"/>
      <point x="148" y="1464" type="line"/>
      <point x="1117" y="1464" type="line"/>
    </contour>
  </outline>
</glyph>
<glyph name="G" format="1">
  <advance width="1374"/>
  <unicode hex="0047"/>
  <outline>
    <contour>
      <point x="735" y="1491" type="curve" smooth="yes"/>
      <point x="958" y="1491"/>
      <point x="1151" y="1381"/>
      <point x="1236" y="1150" type="curve"/>
      <point x="1114" y="1096" type="line"/>
      <point x="1046" y="1280"/>
      <point x="915" y="1374"/>
      <point x="734" y="1374" type="curve" smooth="yes"/>
      <point x="400" y="1374"/>
      <point x="267" y="1149"/>
      <point x="267" y="721" type="curve" smooth="yes"/>
      <point x="267" y="319"/>
      <point x="381" y="93"/>
      <point x="719" y="93" type="curve" smooth="yes"/>
      <point x="885" y="93"/>
      <point x="1104" y="203"/>
      <point x="1104" y="444" type="curve" smooth="yes"/>
      <point x="1104" y="664" type="line"/>
      <point x="732" y="664" type="line"/>
      <point x="732" y="789" type="line"/>
      <point x="1248" y="789" type="line"/>
      <point x="1248" y="581" type="line" smooth="yes"/>
      <point x="1248" y="428"/>
      <point x="1238" y="0"/>
      <point x="1238" y="0" type="curve"/>
      <point x="1145" y="0" type="line"/>
      <point x="1113" y="191" type="line"/>
      <point x="1040" y="68"/>
      <point x="885" y="-24"/>
      <point x="701" y="-24" type="curve" smooth="yes"/>
      <point x="360" y="-24"/>
      <point x="114" y="165"/>
      <point x="114" y="722" type="curve" smooth="yes"/>
      <point x="114" y="1271"/>
      <point x="360" y="1491"/>
    </contour>
    <contour>
      <point x="687" y="1464" type="line"/>
    </contour>
    <contour>
      <point x="687" y="0" type="line"/>
    </contour>
    <contour>
      <point x="687" y="1464" type="line" smooth="yes"/>
    </contour>
    <contour>
      <point x="687" y="0" type="line" smooth="yes"/>
    </contour>
    <contour>
      <point x="687" y="1464" type="move" name="top"/>
    </contour>
    <contour>
      <point x="687" y="0" type="move" name="bottom"/>
    </contour>
  </outline>
</glyph>
<glyph name="H" format="1">
  <advance width="1457"/>
  <unicode hex="0048"/>
  <outline>
    <contour>
      <point x="1164" y="836" type="line"/>
      <point x="1164" y="1464" type="line"/>
      <point x="1309" y="1464" type="line"/>
      <point x="1309" y="0" type="line"/>
      <point x="1164" y="0" type="line"/>
      <point x="1164" y="720" type="line"/>
      <point x="294" y="720" type="line"/>
      <point x="294" y="0" type="line"/>
      <point x="148" y="0" type="line"/>
      <point x="148" y="1464" type="line"/>
      <point x="294" y="1464" type="line"/>
      <point x="294" y="836" type="line"/>
    </contour>
    <contour>
      <point x="729" y="1464" type="line" smooth="yes"/>
    </contour>
    <contour>
      <point x="729" y="732" type="line" smooth="yes"/>
    </contour>
    <contour>
      <point x="729" y="1464" type="move" name="top"/>
    </contour>
    <contour>
      <point x="729" y="732" type="move" name="center"/>
    </contour>
  </outline>
</glyph>
<glyph name="I" format="1">
  <advance width="464"/>
  <unicode hex="0049"/>
  <outline>
    <contour>
      <point x="309" y="0" type="line"/>
      <point x="163" y="0" type="line"/>
      <point x="163" y="1464" type="line"/>
      <point x="309" y="1464" type="line"/>
    </contour>
    <contour>
      <point x="236" y="1464" type="line"/>
    </contour>
    <contour>
      <point x="418" y="10" type="line"/>
    </contour>
    <contour>
      <point x="236" y="1464" type="line" smooth="yes"/>
    </contour>
    <contour>
      <point x="418" y="10" type="line" smooth="yes"/>
    </contour>
    <contour>
      <point x="232" y="1464" type="move" name="top"/>
    </contour>
    <contour>
      <point x="418" y="10" type="move" name="ogonek"/>
    </contour>
  </outline>
</glyph>
<glyph name="J" format="1">
  <advance width="1043"/>
  <unicode hex="004A"/>
  <outline>
    <contour>
      <point x="106" y="334" type="curve"/>
      <point x="236" y="369" type="line"/>
      <point x="274" y="198"/>
      <point x="340" y="93"/>
      <point x="502" y="93" type="curve"/>
      <point x="742" y="95"/>
      <point x="758" y="306"/>
      <point x="758" y="541" type="curve" smooth="yes"/>
      <point x="758" y="1464" type="line"/>
      <point x="903" y="1464" type="line"/>
      <point x="903" y="544" type="line" smooth="yes"/>
      <point x="903" y="166"/>
      <point x="803" y="-25"/>
      <point x="490" y="-25" type="curve" smooth="yes"/>
      <point x="264" y="-25"/>
      <point x="149" y="117"/>
    </contour>
    <contour>
      <point x="522" y="1464" type="line" smooth="yes"/>
    </contour>
    <contour>
      <point x="522" y="1464" type="move" name="top"/>
    </contour>
  </outline>
</glyph>
<glyph name="K" format="1">
  <advance width="1354"/>
  <unicode hex="004B"/>
  <outline>
    <contour>
      <point x="1180" y="1466" type="line"/>
      <point x="665" y="926" type="line"/>
      <point x="1244" y="0" type="line"/>
      <point x="1077" y="0" type="line"/>
      <point x="562" y="828" type="line"/>
      <point x="294" y="553" type="line"/>
      <point x="294" y="0" type="line"/>
      <point x="148" y="0" type="line"/>
      <point x="148" y="1466" type="line"/>
      <point x="294" y="1466" type="line"/>
      <point x="294" y="726" type="line"/>
      <point x="1003" y="1466" type="line"/>
    </contour>
    <contour>
      <point x="677" y="1464" type="line" smooth="yes"/>
    </contour>
    <contour>
      <point x="677" y="0" type="line" smooth="yes"/>
    </contour>
    <contour>
      <point x="677" y="1464" type="move" name="top"/>
    </contour>
    <contour>
      <point x="677" y="0" type="move" name="bottom"/>
    </contour>
  </outline>
</glyph>
<glyph name="L" format="1">
  <advance width="1063"/>
  <unicode hex="004C"/>
  <outline>
    <contour>
      <point x="1041" y="0" type="line"/>
      <point x="148" y="0" type="line"/>
      <point x="148" y="1464" type="line"/>
      <point x="294" y="1464" type="line"/>
      <point x="294" y="113" type="line"/>
      <point x="1041" y="113" type="line"/>
    </contour>
    <contour>
      <point x="532" y="1464" type="line" smooth="yes"/>
    </contour>
    <contour>
      <point x="532" y="0" type="line" smooth="yes"/>
    </contour>
    <contour>
      <point x="532" y="1464" type="move" name="top"/>
    </contour>
    <contour>
      <point x="532" y="0" type="move" name="bottom"/>
    </contour>
  </outline>
</glyph>
<glyph name="N" format="1">
  <advance width="1491"/>
  <unicode hex="004E"/>
  <outline>
    <contour>
      <point x="148" y="0" type="line"/>
      <point x="148" y="1464" type="line"/>
      <point x="311" y="1464" type="line"/>
      <point x="1214" y="221" type="line"/>
      <point x="1214" y="614" type="line"/>
      <point x="1214" y="1464" type="line"/>
      <point x="1343" y="1464" type="line"/>
      <point x="1343" y="0" type="line"/>
      <point x="1211" y="0" type="line"/>
      <point x="279" y="1290" type="line"/>
      <point x="279" y="1175"/>
      <point x="281" y="1009"/>
      <point x="281" y="875" type="curve" smooth="yes"/>
      <point x="281" y="0" type="line"/>
    </contour>
    <contour>
      <point x="746" y="1464" type="line"/>
    </contour>
    <contour>
      <point x="746" y="0" type="line"/>
    </contour>
    <contour>
      <point x="746" y="1464" type="line" smooth="yes"/>
    </contour>
    <contour>
      <point x="746" y="0" type="line" smooth="yes"/>
    </contour>
    <contour>
      <point x="746" y="1464" type="move" name="top"/>
    </contour>
    <contour>
      <point x="746" y="0" type="move" name="bottom"/>
    </contour>
  </outline>
</glyph>
<glyph name="O" format="1">
  <advance width="1445"/>
  <unicode hex="004F"/>
  <outline>
    <contour>
      <point x="721" y="1491" type="curve" smooth="yes"/>
      <point x="1101" y="1491"/>
      <point x="1333" y="1281"/>
      <point x="1333" y="741" type="curve" smooth="yes"/>
      <point x="1333" y="193"/>
      <point x="1111" y="-25"/>
      <point x="720" y="-25" type="curve" smooth="yes"/>
      <point x="337" y="-25"/>
      <point x="112" y="186"/>
      <point x="112" y="740" type="curve" smooth="yes"/>
      <point x="112" y="1282"/>
      <point x="342" y="1491"/>
    </contour>
    <contour>
      <point x="720" y="1374" type="curve" smooth="yes"/>
      <point x="368" y="1374"/>
      <point x="265" y="1130"/>
      <point x="265" y="741" type="curve" smooth="yes"/>
      <point x="265" y="302"/>
      <point x="383" y="93"/>
      <point x="721" y="93" type="curve" smooth="yes"/>
      <point x="1060" y="93"/>
      <point x="1178" y="298"/>
      <point x="1178" y="740" type="curve" smooth="yes"/>
      <point x="1178" y="1130"/>
      <point x="1074" y="1374"/>
    </contour>
    <contour>
      <point x="723" y="1464" type="move" name="top"/>
    </contour>
  </outline>
</glyph>
<glyph name="Q" format="1">
  <advance width="1493"/>
  <unicode hex="0051"/>
  <outline>
    <contour>
      <point x="1305" y="-295" type="line"/>
      <point x="1014" y="30" type="line"/>
      <point x="1014.14" y="30.1602" type="line"/>
      <point x="931.128" y="-7.48621"/>
      <point x="832.65" y="-25"/>
      <point x="720" y="-25" type="curve" smooth="yes"/>
      <point x="337" y="-25"/>
      <point x="112" y="186"/>
      <point x="112" y="740" type="curve" smooth="yes"/>
      <point x="112" y="1282"/>
      <point x="342" y="1491"/>
      <point x="721" y="1491" type="curve" smooth="yes"/>
      <point x="1101" y="1491"/>
      <point x="1333" y="1281"/>
      <point x="1333" y="741" type="curve" smooth="yes"/>
      <point x="1333" y="419.082"/>
      <point x="1256.39" y="211.043"/>
      <point x="1113.92" y="94.1787" type="curve"/>
      <point x="1392" y="-213" type="line"/>
    </contour>
    <contour>
      <point x="720" y="1374" type="curve" smooth="yes"/>
      <point x="368" y="1374"/>
      <point x="265" y="1130"/>
      <point x="265" y="741" type="curve" smooth="yes"/>
      <point x="265" y="302"/>
      <point x="383" y="93"/>
      <point x="721" y="93" type="curve" smooth="yes"/>
      <point x="1060" y="93"/>
      <point x="1178" y="298"/>
      <point x="1178" y="740" type="curve" smooth="yes"/>
      <point x="1178" y="1130"/>
      <point x="1074" y="1374"/>
    </contour>
  </outline>
</glyph>
<glyph name="R" format="1">
  <advance width="1295"/>
  <unicode hex="0052"/>
  <outline>
    <contour>
      <point x="1223" y="1075" type="curve" smooth="yes"/>
      <point x="1223" y="876"/>
      <point x="1122.58" y="752.323"/>
      <point x="907" y="695" type="curve"/>
      <point x="1247" y="0" type="line"/>
      <point x="1091" y="0" type="line"/>
      <point x="759" y="673" type="line"/>
      <point x="298" y="673" type="line"/>
      <point x="298" y="0" type="line"/>
      <point x="148" y="0" type="line"/>
      <point x="148" y="1463" type="line"/>
      <point x="686" y="1465" type="line" smooth="yes"/>
      <point x="1073" y="1466"/>
      <point x="1223" y="1337"/>
    </contour>
    <contour>
      <point x="304" y="1356" type="line"/>
      <point x="304" y="786" type="line"/>
      <point x="653" y="786" type="line" smooth="yes"/>
      <point x="867" y="786"/>
      <point x="1074" y="819"/>
      <point x="1074" y="1073" type="curve" smooth="yes"/>
      <point x="1074" y="1334"/>
      <point x="878" y="1356"/>
      <point x="677" y="1356" type="curve" smooth="yes"/>
    </contour>
    <contour>
      <point x="664" y="0" type="line"/>
    </contour>
    <contour>
      <point x="664" y="1464" type="line" smooth="yes"/>
    </contour>
    <contour>
      <point x="664" y="0" type="line" smooth="yes"/>
    </contour>
    <contour>
      <point x="648" y="1464" type="move" name="top"/>
    </contour>
    <contour>
      <point x="648" y="0" type="move" name="bottom"/>
    </contour>
  </outline>
</glyph>
<glyph name="T" format="1">
  <advance width="1163"/>
  <unicode hex="0054"/>
  <outline>
    <contour>
      <point x="31" y="1352" type="line"/>
      <point x="31" y="1465" type="line"/>
      <point x="1132" y="1465" type="line"/>
      <point x="1132" y="1352" type="line"/>
      <point x="658" y="1352" type="line"/>
      <point x="658" y="0" type="line"/>
      <point x="505" y="0" type="line"/>
      <point x="505" y="1352" type="line"/>
    </contour>
    <contour>
      <point x="582" y="1464" type="line" smooth="yes"/>
    </contour>
    <contour>
      <point x="582" y="0" type="line" smooth="yes"/>
    </contour>
    <contour>
      <point x="582" y="732" type="line" smooth="yes"/>
    </contour>
    <contour>
      <point x="582" y="1464" type="move" name="top"/>
    </contour>
    <contour>
      <point x="582" y="0" type="move" name="bottom"/>
    </contour>
    <contour>
      <point x="582" y="732" type="move" name="center"/>
    </contour>
  </outline>
</glyph>
<glyph name="V" format="1">
  <advance width="1225"/>
  <unicode hex="0056"/>
  <outline>
    <contour>
      <point x="533" y="0" type="line"/>
      <point x="42" y="1464" type="line"/>
      <point x="197" y="1464" type="line"/>
      <point x="485" y="598" type="line" smooth="yes"/>
      <point x="527" y="471"/>
      <point x="570" y="344"/>
      <point x="611" y="218" type="curve"/>
      <point x="653" y="345"/>
      <point x="698" y="471"/>
      <point x="741" y="598" type="curve" smooth="yes"/>
      <point x="1034" y="1464" type="line"/>
      <point x="1182" y="1464" type="line"/>
      <point x="671" y="0" type="line"/>
    </contour>
  </outline>
</glyph>
<glyph name="W" format="1">
  <advance width="1859"/>
  <unicode hex="0057"/>
  <outline>
    <contour>
      <point x="457" y="0" type="line"/>
      <point x="42" y="1462" type="line"/>
      <point x="194" y="1462" type="line"/>
      <point x="440" y="576"/>
      <point x="476" y="394"/>
      <point x="520" y="234" type="curve"/>
      <point x="568" y="395"/>
      <point x="626" y="577"/>
      <point x="895" y="1462" type="curve"/>
      <point x="999" y="1462" type="line"/>
      <point x="1110" y="1054"/>
      <point x="1236" y="626"/>
      <point x="1346" y="217" type="curve"/>
      <point x="1456" y="619"/>
      <point x="1562" y="1054"/>
      <point x="1676" y="1461" type="curve"/>
      <point x="1815" y="1462" type="line"/>
      <point x="1400" y="0" type="line"/>
      <point x="1274" y="0" type="line"/>
      <point x="1006" y="942"/>
      <point x="969" y="1069"/>
      <point x="937" y="1187" type="curve"/>
      <point x="905" y="1080"/>
      <point x="870" y="974"/>
      <point x="570" y="0" type="curve"/>
    </contour>
    <contour>
      <point x="930" y="1464" type="line" smooth="yes"/>
    </contour>
    <contour>
      <point x="930" y="1464" type="move" name="top"/>
    </contour>
  </outline>
</glyph>
<glyph name="X" format="1">
  <advance width="1306"/>
  <unicode hex="0058"/>
  <outline>
    <contour>
      <point x="656" y="889" type="line"/>
      <point x="1059" y="1464" type="line"/>
      <point x="1225" y="1464" type="line"/>
      <point x="736" y="767" type="line"/>
      <point x="1269" y="0" type="line"/>
      <point x="1096" y="0" type="line"/>
      <point x="650" y="641" type="line"/>
      <point x="203" y="0" type="line"/>
      <point x="36" y="0" type="line"/>
      <point x="570" y="763" type="line"/>
      <point x="81" y="1464" type="line"/>
      <point x="256" y="1464" type="line"/>
    </contour>
  </outline>
</glyph>
<glyph name="Y" format="1">
  <advance width="1162"/>
  <unicode hex="0059"/>
  <outline>
    <contour>
      <point x="508" y="549" type="line"/>
      <point x="-4" y="1464" type="line"/>
      <point x="154" y="1464" type="line"/>
      <point x="582" y="682" type="line"/>
      <point x="1009" y="1464" type="line"/>
      <point x="1166" y="1464" type="line"/>
      <point x="654" y="548" type="line"/>
      <point x="654" y="0" type="line"/>
      <point x="508" y="0" type="line"/>
    </contour>
    <contour>
      <point x="581" y="1464" type="line"/>
    </contour>
    <contour>
      <point x="581" y="1464" type="line" smooth="yes"/>
    </contour>
    <contour>
      <point x="581" y="1464" type="move" name="top"/>
    </contour>
  </outline>
</glyph>
<glyph name="Z" format="1">
  <advance width="1176"/>
  <unicode hex="005A"/>
  <outline>
    <contour>
      <point x="130" y="1356" type="line"/>
      <point x="130" y="1464" type="line"/>
      <point x="1136" y="1464" type="line"/>
      <point x="1136" y="1383" type="line"/>
      <point x="228" y="107" type="line"/>
      <point x="1141" y="107" type="line"/>
      <point x="1134" y="0" type="line"/>
      <point x="47" y="0" type="line"/>
      <point x="47" y="98" type="line"/>
      <point x="945" y="1356" type="line"/>
    </contour>
    <contour>
      <point x="569" y="1464" type="line"/>
    </contour>
    <contour>
      <point x="569" y="1464" type="line" smooth="yes"/>
    </contour>
    <contour>
      <point x="588" y="1464" type="move" name="top"/>
    </contour>
  </outline>
</glyph>
<glyph name="asciicircum" format="1">
  <advance width="1053"/>
  <unicode hex="005E"/>
  <outline>
    <contour>
      <point x="241" y="100" type="line"/>
      <point x="103" y="100" type="line"/>
      <point x="469" y="999" type="line"/>
      <point x="595" y="999" type="line"/>
      <point x="950" y="100" type="line"/>
      <point x="798" y="100" type="line"/>
      <point x="525" y="837" type="line"/>
    </contour>
  </outline>
</glyph>
<glyph name="underscore" format="1">
  <advance width="870"/>
  <unicode hex="005F"/>
  <outline>
    <contour>
      <point x="135" y="-1" type="line"/>
      <point x="735" y="-1" type="line"/>
      <point x="735" y="-49" type="line"/>
      <point x="135" y="-49" type="line"/>
    </contour>
  </outline>
</glyph>
<glyph name="grave" format="1">
  <advance width="496"/>
  <unicode hex="0060"/>
  <outline>
    <contour>
      <point x="352" y="1053" type="line"/>
    </contour>
    <contour>
      <point x="47" y="1492" type="line"/>
      <point x="242" y="1492" type="line"/>
      <point x="447" y="1173" type="line"/>
      <point x="353" y="1172" type="line"/>
    </contour>
    <contour>
      <point x="247" y="1023" type="line"/>
    </contour>
    <contour>
      <point x="247" y="1023" type="line" smooth="yes"/>
    </contour>
    <contour>
      <point x="247" y="1023" type="move" name="_top"/>
    </contour>
  </outline>
</glyph>
<glyph name="a" format="1">
  <advance width="1048"/>
  <unicode hex="0061"/>
  <outline>
    <contour>
      <point x="143" y="907" type="curve"/>
      <point x="249" y="993"/>
      <point x="379" y="1044"/>
      <point x="531" y="1044" type="curve" smooth="yes"/>
      <point x="773" y="1044"/>
      <point x="907" y="927"/>
      <point x="907" y="673" type="curve" smooth="yes"/>
      <point x="907" y="186" type="line" smooth="yes"/>
      <point x="907" y="125"/>
      <point x="913" y="59"/>
      <point x="917" y="0" type="curve"/>
      <point x="788" y="0" type="line"/>
      <point x="783" y="40"/>
      <point x="769" y="110"/>
      <point x="769" y="110" type="curve"/>
      <point x="660" y="9"/>
      <point x="545" y="-24"/>
      <point x="408" y="-24" type="curve" smooth="yes"/>
      <point x="247" y="-24"/>
      <point x="109" y="79"/>
      <point x="109" y="257" type="curve" smooth="yes"/>
      <point x="109" y="513"/>
      <point x="321" y="579"/>
      <point x="664" y="579" type="curve" smooth="yes"/>
      <point x="765" y="579" type="line"/>
      <point x="765" y="637" type="line" smooth="yes"/>
      <point x="765" y="865.305"/>
      <point x="695.143" y="935"/>
      <point x="523" y="935" type="curve" smooth="yes"/>
      <point x="409" y="935"/>
      <point x="284" y="873"/>
      <point x="212" y="812" type="curve"/>
      <point x="212" y="813"/>
      <point x="159" y="884"/>
    </contour>
    <contour>
      <point x="765" y="483" type="line"/>
      <point x="667" y="483" type="line" smooth="yes"/>
      <point x="448" y="483"/>
      <point x="243" y="450"/>
      <point x="243" y="266" type="curve" smooth="yes"/>
      <point x="243" y="153"/>
      <point x="312" y="81"/>
      <point x="436" y="81" type="curve" smooth="yes"/>
      <point x="557" y="81"/>
      <point x="675" y="143"/>
      <point x="765" y="219" type="curve"/>
    </contour>
    <contour>
      <point x="524" y="1023" type="line" smooth="yes"/>
    </contour>
    <contour>
      <point x="927" y="10" type="line" smooth="yes"/>
    </contour>
    <contour>
      <point x="524" y="1023" type="move" name="top"/>
    </contour>
    <contour>
      <point x="927" y="10" type="move" name="ogonek"/>
    </contour>
  </outline>
</glyph>
<glyph name="b" format="1">
  <advance width="1078"/>
  <unicode hex="0062"/>
  <outline>
    <contour>
      <point x="125" y="0" type="line"/>
      <point x="125" y="1493" type="line"/>
      <point x="268" y="1493" type="line"/>
      <point x="268" y="1102" type="line"/>
      <point x="268" y="865" type="line"/>
      <point x="327" y="985"/>
      <point x="449" y="1044"/>
      <point x="589" y="1044" type="curve" smooth="yes"/>
      <point x="837" y="1044"/>
      <point x="982" y="840"/>
      <point x="982" y="502" type="curve" smooth="yes"/>
      <point x="982" y="191"/>
      <point x="843" y="-24"/>
      <point x="580" y="-24" type="curve" smooth="yes"/>
      <point x="436" y="-24"/>
      <point x="308" y="39"/>
      <point x="257" y="161" type="curve"/>
      <point x="238" y="0" type="line"/>
    </contour>
    <contour>
      <point x="570" y="940" type="curve" smooth="yes"/>
      <point x="320" y="940"/>
      <point x="262" y="712"/>
      <point x="262" y="488" type="curve" smooth="yes"/>
      <point x="262" y="131"/>
      <point x="437" y="81"/>
      <point x="563" y="81" type="curve" smooth="yes"/>
      <point x="744" y="81"/>
      <point x="837" y="262"/>
      <point x="837" y="499" type="curve" smooth="yes"/>
      <point x="837" y="784"/>
      <point x="746" y="940"/>
    </contour>
  </outline>
</glyph>
<glyph name="c" format="1">
  <advance width="993"/>
  <unicode hex="0063"/>
  <outline>
    <contour>
      <point x="96" y="509" type="curve" smooth="yes"/>
      <point x="96" y="817"/>
      <point x="242" y="1044"/>
      <point x="538" y="1044" type="curve" smooth="yes"/>
      <point x="692" y="1044"/>
      <point x="855" y="975"/>
      <point x="911" y="733" type="curve"/>
      <point x="792" y="701" type="line"/>
      <point x="750" y="862"/>
      <point x="674" y="940"/>
      <point x="544" y="940" type="curve" smooth="yes"/>
      <point x="332" y="940"/>
      <point x="239" y="767"/>
      <point x="239" y="512" type="curve" smooth="yes"/>
      <point x="239" y="260"/>
      <point x="330" y="81"/>
      <point x="538" y="81" type="curve" smooth="yes"/>
      <point x="671" y="81"/>
      <point x="753" y="167"/>
      <point x="799" y="323" type="curve"/>
      <point x="908" y="289" type="line"/>
      <point x="858" y="64"/>
      <point x="694" y="-24"/>
      <point x="535" y="-24" type="curve" smooth="yes"/>
      <point x="243" y="-24"/>
      <point x="96" y="198"/>
    </contour>
    <contour>
      <point x="497" y="1023" type="line" smooth="yes"/>
    </contour>
    <contour>
      <point x="497" y="0" type="line" smooth="yes"/>
    </contour>
    <contour>
      <point x="497" y="1023" type="move" name="top"/>
    </contour>
    <contour>
      <point x="497" y="0" type="move" name="bottom"/>
    </contour>
  </outline>
</glyph>
<glyph name="e" format="1">
  <advance width="1037"/>
  <unicode hex="0065"/>
  <outline>
    <contour>
      <point x="96" y="512" type="curve" smooth="yes"/>
      <point x="96" y="823"/>
      <point x="253" y="1044"/>
      <point x="535" y="1044" type="curve" smooth="yes"/>
      <point x="820" y="1044"/>
      <point x="942" y="830"/>
      <point x="942" y="558" type="curve" smooth="yes"/>
      <point x="942" y="549"/>
      <point x="941" y="515"/>
      <point x="939" y="498" type="curve"/>
      <point x="240" y="498" type="line"/>
      <point x="240" y="277"/>
      <point x="323" y="81"/>
      <point x="543" y="81" type="curve" smooth="yes"/>
      <point x="702.006" y="81"/>
      <point x="775.81" y="200.26"/>
      <point x="806" y="318" type="curve"/>
      <point x="921" y="277" type="line"/>
      <point x="872.432" y="82.728"/>
      <point x="713.012" y="-24"/>
      <point x="542" y="-24" type="curve" smooth="yes"/>
      <point x="226" y="-24"/>
      <point x="96" y="231"/>
    </contour>
    <contour>
      <point x="241" y="592" type="curve"/>
      <point x="805" y="592" type="line"/>
      <point x="804" y="802"/>
      <point x="722" y="941"/>
      <point x="531" y="941" type="curve" smooth="yes"/>
      <point x="347" y="941"/>
      <point x="251" y="774"/>
    </contour>
    <contour>
      <point x="519" y="1023" type="line" smooth="yes"/>
    </contour>
    <contour>
      <point x="519" y="0" type="line" smooth="yes"/>
    </contour>
    <contour>
      <point x="933" y="10" type="line" smooth="yes"/>
    </contour>
    <contour>
      <point x="519" y="1023" type="move" name="top"/>
    </contour>
    <contour>
      <point x="519" y="0" type="move" name="bottom"/>
    </contour>
    <contour>
      <point x="933" y="10" type="move" name="ogonek"/>
    </contour>
  </outline>
</glyph>
<glyph name="g" format="1">
  <advance width="1077"/>
  <unicode hex="0067"/>
  <outline>
    <contour>
      <point x="818" y="543" type="line" smooth="yes"/>
      <point x="818" y="886"/>
      <point x="632" y="940"/>
      <point x="518" y="940" type="curve" smooth="yes"/>
      <point x="315" y="940"/>
      <point x="236" y="737"/>
      <point x="236" y="530" type="curve" smooth="yes"/>
      <point x="236" y="239"/>
      <point x="345" y="81"/>
      <point x="513" y="81" type="curve" smooth="yes"/>
      <point x="647" y="81"/>
      <point x="818" y="148"/>
      <point x="818" y="509" type="curve" smooth="yes"/>
    </contour>
    <contour>
      <point x="521" y="-429" type="curve" smooth="yes"/>
      <point x="425" y="-429"/>
      <point x="253" y="-400"/>
      <point x="164" y="-252" type="curve"/>
      <point x="247" y="-173" type="line"/>
      <point x="306" y="-268"/>
      <point x="404" y="-320"/>
      <point x="534" y="-320" type="curve" smooth="yes"/>
      <point x="729" y="-320"/>
      <point x="818" y="-187"/>
      <point x="818" y="28" type="curve" smooth="yes"/>
      <point x="818" y="130" type="line"/>
      <point x="749" y="39"/>
      <point x="653" y="-24"/>
      <point x="508" y="-24" type="curve" smooth="yes"/>
      <point x="240" y="-24"/>
      <point x="94" y="205"/>
      <point x="94" y="526" type="curve" smooth="yes"/>
      <point x="94" y="823"/>
      <point x="234" y="1044"/>
      <point x="502" y="1044" type="curve" smooth="yes"/>
      <point x="634" y="1044"/>
      <point x="748" y="988"/>
      <point x="829" y="891" type="curve"/>
      <point x="837" y="1023" type="line"/>
      <point x="951" y="1023" type="line"/>
      <point x="951" y="20" type="line" smooth="yes"/>
      <point x="951" y="-238"/>
      <point x="808" y="-429"/>
    </contour>
    <contour>
      <point x="537" y="1023" type="line"/>
    </contour>
    <contour>
      <point x="537" y="1023" type="line" smooth="yes"/>
    </contour>
    <contour>
      <point x="539" y="1023" type="move" name="top"/>
    </contour>
  </outline>
</glyph>
<glyph name="h" format="1">
  <advance width="1072"/>
  <unicode hex="0068"/>
  <outline>
    <contour>
      <point x="598" y="940" type="curve" smooth="yes"/>
      <point x="344" y="940"/>
      <point x="268" y="723"/>
      <point x="268" y="483" type="curve" smooth="yes"/>
      <point x="268" y="0" type="line"/>
      <point x="126" y="0" type="line"/>
      <point x="126" y="1473" type="line"/>
      <point x="268" y="1473" type="line"/>
      <point x="268" y="1053" type="line"/>
      <point x="268" y="862" type="line"/>
      <point x="356" y="999"/>
      <point x="486" y="1044"/>
      <point x="619" y="1044" type="curve" smooth="yes"/>
      <point x="945" y="1044"/>
      <point x="976" y="784"/>
      <point x="976" y="583" type="curve" smooth="yes"/>
      <point x="976" y="0" type="line"/>
      <point x="834" y="0" type="line"/>
      <point x="834" y="594" type="line" smooth="yes"/>
      <point x="834" y="807"/>
      <point x="782" y="940"/>
    </contour>
    <contour>
      <point x="536" y="1023" type="line" smooth="yes"/>
    </contour>
    <contour>
      <point x="536" y="512" type="line" smooth="yes"/>
    </contour>
    <contour>
      <point x="536" y="1023" type="move" name="top"/>
    </contour>
    <contour>
      <point x="536" y="512" type="move" name="center"/>
    </contour>
  </outline>
</glyph>
<glyph name="i" format="1">
  <advance width="401"/>
  <unicode hex="0069"/>
  <outline>
    <contour>
      <point x="132" y="1242" type="line"/>
      <point x="132" y="1421" type="line"/>
      <point x="273" y="1421" type="line"/>
      <point x="273" y="1242" type="line"/>
    </contour>
    <contour>
      <point x="134" y="0" type="line"/>
      <point x="134" y="1023" type="line"/>
      <point x="276" y="1023" type="line"/>
      <point x="276" y="0" type="line"/>
    </contour>
  </outline>
</glyph>
<glyph name="j" format="1">
  <advance width="523"/>
  <unicode hex="006A"/>
  <outline>
    <contour>
      <point x="255" y="-91" type="curve" smooth="yes"/>
      <point x="255" y="1023" type="line"/>
      <point x="397" y="1023" type="line"/>
      <point x="397" y="-12" type="line" smooth="yes"/>
      <point x="397" y="-217"/>
      <point x="370" y="-325"/>
      <point x="178" y="-325" type="curve" smooth="yes"/>
      <point x="127" y="-325"/>
      <point x="64" y="-312"/>
      <point x="16" y="-284" type="curve"/>
      <point x="40" y="-177" type="line"/>
      <point x="78" y="-191"/>
      <point x="126" y="-208"/>
      <point x="159" y="-208" type="curve" smooth="yes"/>
      <point x="218" y="-208"/>
      <point x="255" y="-182"/>
    </contour>
    <contour>
      <point x="257" y="1242" type="line"/>
      <point x="257" y="1421" type="line"/>
      <point x="398" y="1421" type="line"/>
      <point x="398" y="1242" type="line"/>
    </contour>
  </outline>
</glyph>
<glyph name="k" format="1">
  <advance width="1044"/>
  <unicode hex="006B"/>
  <outline>
    <contour>
      <point x="797" y="1023" type="line"/>
      <point x="959" y="1023" type="line"/>
      <point x="578" y="656" type="line"/>
      <point x="1018" y="0" type="line"/>
      <point x="858" y="0" type="line"/>
      <point x="485" y="570" type="line"/>
      <point x="272" y="369" type="line"/>
      <point x="272" y="0" type="line"/>
      <point x="130" y="0" type="line"/>
      <point x="130" y="1477" type="line"/>
      <point x="271" y="1477" type="line"/>
      <point x="271" y="516" type="line"/>
    </contour>
    <contour>
      <point x="522" y="0" type="line" smooth="yes"/>
    </contour>
    <contour>
      <point x="522" y="0" type="move" name="bottom"/>
    </contour>
  </outline>
</glyph>
<glyph name="l" format="1">
  <advance width="413"/>
  <unicode hex="006C"/>
  <outline>
    <contour>
      <point x="136" y="0" type="line"/>
      <point x="136" y="1474" type="line"/>
      <point x="278" y="1474" type="line"/>
      <point x="278" y="0" type="line"/>
    </contour>
    <contour>
      <point x="207" y="1023" type="line" smooth="yes"/>
    </contour>
    <contour>
      <point x="207" y="0" type="line" smooth="yes"/>
    </contour>
    <contour>
      <point x="393" y="1023" type="line" smooth="yes"/>
    </contour>
    <contour>
      <point x="207" y="1023" type="move" name="top"/>
    </contour>
    <contour>
      <point x="207" y="0" type="move" name="bottom"/>
    </contour>
    <contour>
      <point x="393" y="1023" type="move" name="topright"/>
    </contour>
  </outline>
</glyph>
<glyph name="m" format="1">
  <advance width="1663"/>
  <unicode hex="006D"/>
  <outline>
    <contour>
      <point x="563" y="940" type="curve" smooth="yes"/>
      <point x="381" y="940"/>
      <point x="268" y="757"/>
      <point x="268" y="583" type="curve" smooth="yes"/>
      <point x="268" y="0" type="line"/>
      <point x="126" y="0" type="line"/>
      <point x="126" y="1023" type="line"/>
      <point x="263" y="1023" type="line"/>
      <point x="267" y="861" type="line"/>
      <point x="347" y="998"/>
      <point x="475" y="1044"/>
      <point x="593" y="1044" type="curve" smooth="yes"/>
      <point x="750" y="1044"/>
      <point x="843" y="961"/>
      <point x="879" y="832" type="curve"/>
      <point x="953" y="987"/>
      <point x="1113" y="1044"/>
      <point x="1236" y="1044" type="curve" smooth="yes"/>
      <point x="1515" y="1044"/>
      <point x="1542" y="789"/>
      <point x="1542" y="576" type="curve" smooth="yes"/>
      <point x="1542" y="0" type="line"/>
      <point x="1400" y="0" type="line"/>
      <point x="1400" y="607" type="line" smooth="yes"/>
      <point x="1400" y="802"/>
      <point x="1356" y="940"/>
      <point x="1199" y="940" type="curve" smooth="yes"/>
      <point x="1023" y="940"/>
      <point x="904" y="761"/>
      <point x="904" y="591" type="curve" smooth="yes"/>
      <point x="904" y="0" type="line"/>
      <point x="762" y="0" type="line"/>
      <point x="762" y="607" type="line" smooth="yes"/>
      <point x="762" y="805"/>
      <point x="717" y="940"/>
    </contour>
  </outline>
</glyph>
<glyph name="n" format="1">
  <advance width="1097"/>
  <unicode hex="006E"/>
  <outline>
    <contour>
      <point x="126" y="0" type="line"/>
      <point x="126" y="1023" type="line"/>
      <point x="264" y="1023" type="line"/>
      <point x="264" y="1023"/>
      <point x="263.677" y="829.054"/>
      <point x="264" y="830" type="curve" smooth="yes"/>
      <point x="316.275" y="983.249"/>
      <point x="490.341" y="1044"/>
      <point x="622" y="1044" type="curve" smooth="yes"/>
      <point x="945" y="1044"/>
      <point x="976" y="790"/>
      <point x="976" y="584" type="curve" smooth="yes"/>
      <point x="976" y="0" type="line"/>
      <point x="834" y="0" type="line"/>
      <point x="834" y="603" type="line" smooth="yes"/>
      <point x="834" y="806"/>
      <point x="781" y="930"/>
      <point x="602" y="930" type="curve" smooth="yes"/>
      <point x="339" y="930"/>
      <point x="268" y="739"/>
      <point x="268" y="499" type="curve" smooth="yes"/>
      <point x="268" y="0" type="line"/>
    </contour>
    <contour>
      <point x="549" y="1023" type="line" smooth="yes"/>
    </contour>
    <contour>
      <point x="549" y="0" type="line" smooth="yes"/>
    </contour>
    <contour>
      <point x="549" y="1023" type="move" name="top"/>
    </contour>
    <contour>
      <point x="549" y="0" type="move" name="bottom"/>
    </contour>
  </outline>
</glyph>
<glyph name="o" format="1">
  <advance width="1068"/>
  <unicode hex="006F"/>
  <outline>
    <contour>
      <point x="535" y="1044" type="curve" smooth="yes"/>
      <point x="786" y="1044"/>
      <point x="972" y="873"/>
      <point x="972" y="513" type="curve" smooth="yes"/>
      <point x="972" y="162"/>
      <point x="799" y="-24"/>
      <point x="534" y="-24" type="curve" smooth="yes"/>
      <point x="269" y="-24"/>
      <point x="96" y="161"/>
      <point x="96" y="510" type="curve" smooth="yes"/>
      <point x="96" y="872"/>
      <point x="281" y="1044"/>
    </contour>
    <contour>
      <point x="534" y="940" type="curve" smooth="yes"/>
      <point x="300" y="940"/>
      <point x="239" y="720"/>
      <point x="239" y="513" type="curve" smooth="yes"/>
      <point x="239" y="302"/>
      <point x="300" y="81"/>
      <point x="535" y="81" type="curve" smooth="yes"/>
      <point x="768" y="81"/>
      <point x="830" y="301"/>
      <point x="830" y="511" type="curve" smooth="yes"/>
      <point x="830" y="720"/>
      <point x="766" y="940"/>
    </contour>
    <contour>
      <point x="534" y="1023" type="line" smooth="yes"/>
    </contour>
    <contour>
      <point x="534" y="1023" type="move" name="top"/>
    </contour>
  </outline>
</glyph>
<glyph name="p" format="1">
  <advance width="1057"/>
  <unicode hex="0070"/>
  <outline>
    <contour>
      <point x="257" y="858" type="line"/>
      <point x="320" y="976"/>
      <point x="418" y="1044"/>
      <point x="567" y="1044" type="curve" smooth="yes"/>
      <point x="842" y="1044"/>
      <point x="961" y="812"/>
      <point x="961" y="520" type="curve" smooth="yes"/>
      <point x="961" y="217"/>
      <point x="840" y="-21"/>
      <point x="574" y="-24" type="curve"/>
      <point x="435" y="-24"/>
      <point x="325" y="40"/>
      <point x="266" y="154" type="curve"/>
      <point x="267" y="110"/>
      <point x="267" y="65"/>
      <point x="267" y="21" type="curve" smooth="yes"/>
      <point x="267" y="-350" type="line"/>
      <point x="125" y="-350" type="line"/>
      <point x="125" y="1023" type="line"/>
      <point x="247" y="1023" type="line"/>
    </contour>
    <contour>
      <point x="552" y="940" type="curve" smooth="yes"/>
      <point x="300" y="940"/>
      <point x="264" y="737"/>
      <point x="264" y="519" type="curve" smooth="yes"/>
      <point x="264" y="294"/>
      <point x="321" y="81"/>
      <point x="553" y="81" type="curve" smooth="yes"/>
      <point x="718" y="81"/>
      <point x="816" y="243"/>
      <point x="816" y="521" type="curve" smooth="yes"/>
      <point x="816" y="767"/>
      <point x="720" y="940"/>
    </contour>
  </outline>
</glyph>
<glyph name="q" format="1">
  <advance width="1055"/>
  <unicode hex="0071"/>
  <outline>
    <contour>
      <point x="482" y="1044" type="curve" smooth="yes"/>
      <point x="618" y="1044"/>
      <point x="738" y="997"/>
      <point x="798" y="862" type="curve"/>
      <point x="813" y="1023" type="line"/>
      <point x="930" y="1023" type="line"/>
      <point x="930" y="-350" type="line"/>
      <point x="787" y="-350" type="line"/>
      <point x="787" y="12" type="line"/>
      <point x="787" y="155" type="line"/>
      <point x="730" y="39"/>
      <point x="621" y="-24"/>
      <point x="480" y="-24" type="curve" smooth="yes"/>
      <point x="220" y="-24"/>
      <point x="96" y="212"/>
      <point x="96" y="518" type="curve" smooth="yes"/>
      <point x="96" y="809"/>
      <point x="220" y="1044"/>
    </contour>
    <contour>
      <point x="503" y="940" type="curve" smooth="yes"/>
      <point x="335" y="940"/>
      <point x="238" y="763"/>
      <point x="238" y="522" type="curve" smooth="yes"/>
      <point x="238" y="244"/>
      <point x="337" y="81"/>
      <point x="499" y="81" type="curve" smooth="yes"/>
      <point x="740" y="81"/>
      <point x="787" y="294"/>
      <point x="787" y="501" type="curve" smooth="yes"/>
      <point x="787" y="736"/>
      <point x="744" y="940"/>
    </contour>
  </outline>
</glyph>
<glyph name="r" format="1">
  <advance width="577"/>
  <unicode hex="0072"/>
  <outline>
    <contour>
      <point x="263" y="1023" type="line"/>
      <point x="263" y="831" type="line"/>
      <point x="322" y="978"/>
      <point x="457" y="1024"/>
      <point x="569" y="1024" type="curve"/>
      <point x="569" y="895" type="line"/>
      <point x="340" y="895"/>
      <point x="267" y="717"/>
      <point x="267" y="532" type="curve"/>
      <point x="267" y="532"/>
      <point x="267" y="140.5"/>
      <point x="267" y="0" type="curve"/>
      <point x="125" y="0" type="line"/>
      <point x="125" y="1023" type="line"/>
    </contour>
    <contour>
      <point x="306" y="1023" type="line"/>
    </contour>
    <contour>
      <point x="306" y="0" type="line"/>
    </contour>
    <contour>
      <point x="306" y="1023" type="line" smooth="yes"/>
    </contour>
    <contour>
      <point x="306" y="0" type="line" smooth="yes"/>
    </contour>
    <contour>
      <point x="289" y="1023" type="move" name="top"/>
    </contour>
    <contour>
      <point x="289" y="0" type="move" name="bottom"/>
    </contour>
  </outline>
</glyph>
<glyph name="s" format="1">
  <advance width="976"/>
  <unicode hex="0073"/>
  <outline>
    <contour>
      <point x="122" y="761" type="curve" smooth="yes"/>
      <point x="122" y="946"/>
      <point x="293" y="1044"/>
      <point x="512" y="1044" type="curve" smooth="yes"/>
      <point x="689" y="1044"/>
      <point x="796" y="998"/>
      <point x="880" y="851" type="curve"/>
      <point x="880" y="851"/>
      <point x="778" y="788"/>
      <point x="778" y="787" type="curve"/>
      <point x="716" y="902"/>
      <point x="652" y="937"/>
      <point x="520" y="937" type="curve" smooth="yes"/>
      <point x="350" y="937"/>
      <point x="251" y="873"/>
      <point x="251" y="747" type="curve" smooth="yes"/>
      <point x="251" y="632"/>
      <point x="386" y="607"/>
      <point x="533" y="580" type="curve" smooth="yes"/>
      <point x="755" y="539"/>
      <point x="889" y="455"/>
      <point x="889" y="272" type="curve" smooth="yes"/>
      <point x="889" y="76"/>
      <point x="748.385" y="-24"/>
      <point x="477" y="-24" type="curve" smooth="yes"/>
      <point x="313" y="-24"/>
      <point x="117" y="45"/>
      <point x="79" y="269" type="curve"/>
      <point x="184" y="310" type="line"/>
      <point x="228" y="155"/>
      <point x="313" y="83"/>
      <point x="490" y="83" type="curve" smooth="yes"/>
      <point x="632" y="83"/>
      <point x="761" y="129"/>
      <point x="761" y="268" type="curve" smooth="yes"/>
      <point x="761" y="393.072"/>
      <point x="688" y="422"/>
      <point x="440" y="474" type="curve" smooth="yes"/>
      <point x="271" y="510"/>
      <point x="122" y="559.878"/>
    </contour>
    <contour>
      <point x="488" y="1023" type="line" smooth="yes"/>
    </contour>
    <contour>
      <point x="488" y="0" type="line" smooth="yes"/>
    </contour>
    <contour>
      <point x="488" y="1023" type="move" name="top"/>
    </contour>
    <contour>
      <point x="488" y="0" type="move" name="bottom"/>
    </contour>
  </outline>
</glyph>
<glyph name="t" format="1">
  <advance width="696"/>
  <unicode hex="0074"/>
  <outline>
    <contour>
      <point x="610" y="116" type="curve"/>
      <point x="640" y="24" type="line"/>
      <point x="593" y="-6"/>
      <point x="530" y="-24"/>
      <point x="464" y="-24" type="curve" smooth="yes"/>
      <point x="288" y="-24"/>
      <point x="213" y="84"/>
      <point x="213" y="325" type="curve" smooth="yes"/>
      <point x="213" y="924" type="line"/>
      <point x="60" y="924" type="line"/>
      <point x="60" y="1023" type="line"/>
      <point x="222" y="1023" type="line"/>
      <point x="222" y="1350" type="line"/>
      <point x="355" y="1387" type="line"/>
      <point x="355" y="1023" type="line"/>
      <point x="579" y="1023" type="line"/>
      <point x="579" y="924" type="line"/>
      <point x="355" y="924" type="line"/>
      <point x="355" y="264" type="line" smooth="yes"/>
      <point x="355" y="135"/>
      <point x="413" y="86"/>
      <point x="493" y="86" type="curve" smooth="yes"/>
      <point x="529" y="86"/>
      <point x="569" y="98"/>
    </contour>
    <contour>
      <point x="348" y="0" type="move" name="bottom"/>
    </contour>
    <contour>
      <point x="348" y="512" type="move" name="center"/>
    </contour>
  </outline>
</glyph>
<glyph name="u" format="1">
  <advance width="1118"/>
  <unicode hex="0075"/>
  <outline>
    <contour>
      <point x="813" y="436" type="curve" smooth="yes"/>
      <point x="813" y="1023" type="line"/>
      <point x="955" y="1023" type="line"/>
      <point x="955" y="0" type="line"/>
      <point x="817" y="0" type="line"/>
      <point x="817" y="192" type="line"/>
      <point x="760" y="40"/>
      <point x="595" y="-24"/>
      <point x="458" y="-24" type="curve" smooth="yes"/>
      <point x="143" y="-24"/>
      <point x="121" y="235"/>
      <point x="121" y="436" type="curve" smooth="yes"/>
      <point x="121" y="1023" type="line"/>
      <point x="263" y="1023" type="line"/>
      <point x="263" y="406" type="line" smooth="yes"/>
      <point x="263" y="209"/>
      <point x="312" y="87"/>
      <point x="483" y="87" type="curve" smooth="yes"/>
      <point x="746" y="87"/>
      <point x="813" y="314"/>
    </contour>
    <contour>
      <point x="561" y="1023" type="move" name="top"/>
    </contour>
    <contour>
      <point x="1009" y="10" type="move" name="ogonek"/>
    </contour>
  </outline>
</glyph>
<glyph name="v" format="1">
  <advance width="1100"/>
  <unicode hex="0076"/>
  <outline>
    <contour>
      <point x="884" y="1023" type="line"/>
      <point x="1022" y="1023" type="line"/>
      <point x="607" y="0" type="line"/>
      <point x="481" y="0" type="line"/>
      <point x="78" y="1023" type="line"/>
      <point x="230" y="1023" type="line"/>
      <point x="551" y="162" type="line"/>
    </contour>
  </outline>
</glyph>
<glyph name="w" format="1">
  <advance width="1600"/>
  <unicode hex="0077"/>
  <outline>
    <contour>
      <point x="409" y="0" type="line"/>
      <point x="79" y="1023" type="line"/>
      <point x="231" y="1023" type="line"/>
      <point x="480" y="177" type="line"/>
      <point x="591" y="515" type="line"/>
      <point x="758" y="1023" type="line"/>
      <point x="852" y="1023" type="line"/>
      <point x="1009" y="516" type="line"/>
      <point x="1114" y="178" type="line"/>
      <point x="1381" y="1023" type="line"/>
      <point x="1521" y="1023" type="line"/>
      <point x="1173" y="0" type="line"/>
      <point x="1046" y="0" type="line"/>
      <point x="800" y="800" type="line"/>
      <point x="536" y="0" type="line"/>
    </contour>
    <contour>
      <point x="800" y="1023" type="line" smooth="yes"/>
    </contour>
    <contour>
      <point x="800" y="1023" type="move" name="top"/>
    </contour>
  </outline>
</glyph>
<glyph name="x" format="1">
  <advance width="966"/>
  <unicode hex="0078"/>
  <outline>
    <contour>
      <point x="405" y="514" type="line"/>
      <point x="34" y="1023" type="line"/>
      <point x="188" y="1023" type="line"/>
      <point x="482" y="619" type="line"/>
      <point x="776" y="1023" type="line"/>
      <point x="926" y="1023" type="line"/>
      <point x="558" y="518" type="line"/>
      <point x="938" y="0" type="line"/>
      <point x="784" y="0" type="line"/>
      <point x="481" y="412" type="line"/>
      <point x="181" y="0" type="line"/>
      <point x="31" y="0" type="line"/>
    </contour>
  </outline>
</glyph>
<glyph name="y" format="1">
  <advance width="1069"/>
  <unicode hex="0079"/>
  <outline>
    <contour>
      <point x="466" y="64" type="line"/>
      <point x="74" y="1023" type="line"/>
      <point x="217" y="1023" type="line" smooth="yes"/>
      <point x="216" y="1023"/>
      <point x="434" y="459"/>
      <point x="535" y="207" type="curve"/>
      <point x="635" y="466"/>
      <point x="737" y="722"/>
      <point x="855" y="1023" type="curve"/>
      <point x="995" y="1023" type="line"/>
      <point x="873" y="715"/>
      <point x="747" y="405"/>
      <point x="624" y="97" type="curve" smooth="yes"/>
      <point x="517" y="-171"/>
      <point x="437" y="-320"/>
      <point x="209" y="-320" type="curve" smooth="yes"/>
      <point x="176" y="-320"/>
      <point x="141" y="-316"/>
      <point x="104" y="-306" type="curve"/>
      <point x="119" y="-193" type="line"/>
      <point x="152" y="-198"/>
      <point x="181" y="-200"/>
      <point x="207" y="-200" type="curve" smooth="yes"/>
      <point x="302" y="-200"/>
      <point x="391" y="-155"/>
      <point x="443" y="-3" type="curve" smooth="yes"/>
    </contour>
    <contour>
      <point x="535" y="1023" type="line" smooth="yes"/>
    </contour>
    <contour>
      <point x="535" y="1023" type="move" name="top"/>
    </contour>
  </outline>
</glyph>
<glyph name="z" format="1">
  <advance width="970"/>
  <unicode hex="007A"/>
  <outline>
    <contour>
      <point x="106" y="919" type="line"/>
      <point x="106" y="1023" type="line"/>
      <point x="872" y="1023" type="line"/>
      <point x="872" y="928" type="line"/>
      <point x="256" y="103" type="line"/>
      <point x="870" y="103" type="line"/>
      <point x="870" y="0" type="line"/>
      <point x="86" y="0" type="line"/>
      <point x="86" y="94" type="line"/>
      <point x="703" y="919" type="line"/>
    </contour>
    <contour>
      <point x="477" y="1023" type="line" smooth="yes"/>
    </contour>
    <contour>
      <point x="477" y="1023" type="move" name="top"/>
    </contour>
  </outline>
</glyph>
<glyph name="braceleft" format="1">
  <advance width="644"/>
  <unicode hex="007B"/>
  <outline>
    <contour>
      <point x="35" y="754" type="line"/>
      <point x="200" y="766"/>
      <point x="198" y="864"/>
      <point x="198" y="993" type="curve" smooth="yes"/>
      <point x="198" y="1292"/>
      <point x="198" y="1504"/>
      <point x="608" y="1504" type="curve"/>
      <point x="608" y="1414" type="line"/>
      <point x="348" y="1414"/>
      <point x="349" y="1335"/>
      <point x="349" y="993" type="curve" smooth="yes"/>
      <point x="349" y="811"/>
      <point x="319" y="738"/>
      <point x="190" y="707" type="curve"/>
      <point x="319" y="676"/>
      <point x="349" y="603"/>
      <point x="349" y="421" type="curve" smooth="yes"/>
      <point x="349" y="79"/>
      <point x="348" y="0"/>
      <point x="608" y="0" type="curve"/>
      <point x="608" y="-90" type="line"/>
      <point x="198" y="-90"/>
      <point x="198" y="122"/>
      <point x="198" y="421" type="curve" smooth="yes"/>
      <point x="198" y="550"/>
      <point x="200" y="648"/>
      <point x="35" y="660" type="curve"/>
    </contour>
  </outline>
</glyph>
<glyph name="braceright" format="1">
  <advance width="644"/>
  <unicode hex="007D"/>
  <outline>
    <contour>
      <point x="609" y="753" type="line"/>
      <point x="444" y="765"/>
      <point x="446" y="863"/>
      <point x="446" y="992" type="curve" smooth="yes"/>
      <point x="446" y="1291"/>
      <point x="446" y="1503"/>
      <point x="36" y="1503" type="curve"/>
      <point x="36" y="1413" type="line"/>
      <point x="296" y="1413"/>
      <point x="295" y="1334"/>
      <point x="295" y="992" type="curve" smooth="yes"/>
      <point x="295" y="810"/>
      <point x="325" y="737"/>
      <point x="454" y="706" type="curve"/>
      <point x="325" y="675"/>
      <point x="295" y="602"/>
      <point x="295" y="420" type="curve" smooth="yes"/>
      <point x="295" y="78"/>
      <point x="296" y="-1"/>
      <point x="36" y="-1" type="curve"/>
      <point x="36" y="-91" type="line"/>
      <point x="446" y="-91"/>
      <point x="446" y="121"/>
      <point x="446" y="420" type="curve" smooth="yes"/>
      <point x="446" y="549"/>
      <point x="444" y="647"/>
      <point x="609" y="659" type="curve"/>
    </contour>
  </outline>
</glyph>
<glyph name="asciitilde" format="1">
  <advance width="962.0"/>
  <unicode hex="007E"/>
  <outline>
    <contour>
      <point x="314" y="825"/>
      <point x="605" y="700"/>
      <point x="757" y="700" type="curve" smooth="yes"/>
      <point x="864" y="700"/>
      <point x="932" y="754"/>
      <point x="941" y="946" type="curve"/>
      <point x="822" y="946" type="line"/>
      <point x="804" y="855"/>
      <point x="800" y="826"/>
      <point x="743" y="826" type="curve" smooth="yes"/>
      <point x="669" y="826"/>
      <point x="347" y="946"/>
      <point x="235" y="946" type="curve" smooth="yes"/>
      <point x="143" y="946"/>
      <point x="36" y="944"/>
      <point x="21" y="707" type="curve"/>
      <point x="139" y="707" type="line"/>
      <point x="160" y="818"/>
      <point x="185" y="825"/>
      <point x="217" y="825" type="curve" smooth="yes"/>
    </contour>
  </outline>
</glyph>
<glyph name="exclamdown" format="1">
  <advance width="426"/>
  <unicode hex="00A1"/>
  <outline>
    <contour>
      <point x="174" y="1161" type="line"/>
      <point x="250" y="1160" type="line"/>
      <point x="307" y="0" type="line"/>
      <point x="122" y="0" type="line"/>
    </contour>
    <contour>
      <point x="139" y="1268" type="line"/>
      <point x="139" y="1465" type="line"/>
      <point x="303" y="1465" type="line"/>
      <point x="303" y="1268" type="line"/>
    </contour>
  </outline>
</glyph>
<glyph name="sterling" format="1">
  <advance width="1168"/>
  <unicode hex="00A3"/>
  <outline>
    <contour>
      <point x="409" y="24"/>
      <point x="559" y="42"/>
      <point x="677" y="42" type="curve" smooth="yes"/>
      <point x="807" y="42"/>
      <point x="898" y="20"/>
      <point x="998" y="-1" type="curve"/>
      <point x="1026" y="129" type="line"/>
      <point x="938" y="152"/>
      <point x="849" y="167"/>
      <point x="739" y="167" type="curve" smooth="yes"/>
      <point x="615" y="167"/>
      <point x="450" y="159"/>
      <point x="267" y="95" type="curve"/>
      <point x="307" y="173"/>
      <point x="389" y="260"/>
      <point x="389" y="502" type="curve" smooth="yes"/>
      <point x="389" y="556"/>
      <point x="381" y="623"/>
      <point x="375" y="695" type="curve"/>
      <point x="710" y="695" type="line"/>
      <point x="710" y="800" type="line"/>
      <point x="366" y="800" type="line"/>
      <point x="361" y="857"/>
      <point x="353" y="925"/>
      <point x="353" y="977" type="curve" smooth="yes"/>
      <point x="353" y="1234"/>
      <point x="434.682" y="1383"/>
      <point x="639" y="1383" type="curve" smooth="yes"/>
      <point x="721" y="1383"/>
      <point x="856" y="1359"/>
      <point x="892" y="1134" type="curve"/>
      <point x="1011" y="1152" type="line"/>
      <point x="979" y="1364"/>
      <point x="864" y="1489"/>
      <point x="633" y="1489" type="curve" smooth="yes"/>
      <point x="346.888" y="1489"/>
      <point x="215" y="1290"/>
      <point x="215" y="958" type="curve" smooth="yes"/>
      <point x="215" y="912"/>
      <point x="223" y="850"/>
      <point x="227" y="800" type="curve"/>
      <point x="66" y="800" type="line"/>
      <point x="66" y="695" type="line"/>
      <point x="236" y="695" type="line"/>
      <point x="244" y="634"/>
      <point x="254" y="574"/>
      <point x="254" y="525" type="curve" smooth="yes"/>
      <point x="254" y="328"/>
      <point x="189" y="211"/>
      <point x="116" y="60" type="curve"/>
      <point x="192" y="-30" type="line"/>
    </contour>
  </outline>
</glyph>
<glyph name="currency" format="1">
  <advance width="1068"/>
  <unicode hex="00A4"/>
  <outline>
    <contour>
      <point x="769" y="515" type="curve" smooth="yes"/>
      <point x="769" y="375"/>
      <point x="681" y="234"/>
      <point x="536" y="234" type="curve" smooth="yes"/>
      <point x="385" y="234"/>
      <point x="303" y="373"/>
      <point x="303" y="512" type="curve" smooth="yes"/>
      <point x="303" y="651"/>
      <point x="386" y="790"/>
      <point x="535" y="790" type="curve" smooth="yes"/>
      <point x="684" y="790"/>
      <point x="769" y="653"/>
    </contour>
    <contour>
      <point x="183" y="513" type="curve" smooth="yes"/>
      <point x="183" y="328"/>
      <point x="301" y="141"/>
      <point x="535" y="141" type="curve" smooth="yes"/>
      <point x="767" y="141"/>
      <point x="883" y="325"/>
      <point x="883" y="510" type="curve" smooth="yes"/>
      <point x="883" y="695"/>
      <point x="767" y="880"/>
      <point x="534" y="880" type="curve" smooth="yes"/>
      <point x="299" y="880"/>
      <point x="183" y="697"/>
    </contour>
    <contour>
      <point x="534" y="1023" type="line" smooth="yes"/>
    </contour>
    <contour>
      <point x="534" y="1023" type="line" smooth="yes"/>
    </contour>
  </outline>
</glyph>
<glyph name="yen" format="1">
  <advance width="1358"/>
  <unicode hex="00A5"/>
  <outline>
    <contour>
      <point x="348" y="544" type="line"/>
      <point x="348" y="630" type="line"/>
      <point x="559" y="630" type="line"/>
      <point x="94" y="1436" type="line"/>
      <point x="252" y="1436" type="line"/>
      <point x="680" y="682" type="line"/>
      <point x="1107" y="1436" type="line"/>
      <point x="1264" y="1436" type="line"/>
      <point x="799" y="630" type="line"/>
      <point x="1002" y="630" type="line"/>
      <point x="1002" y="544" type="line"/>
      <point x="752" y="544" type="line"/>
      <point x="752" y="420" type="line"/>
      <point x="1002" y="420" type="line"/>
      <point x="1002" y="334" type="line"/>
      <point x="752" y="334" type="line"/>
      <point x="752" y="0" type="line"/>
      <point x="606" y="0" type="line"/>
      <point x="606" y="334" type="line"/>
      <point x="348" y="334" type="line"/>
      <point x="348" y="420" type="line"/>
      <point x="606" y="420" type="line"/>
      <point x="606" y="544" type="line"/>
    </contour>
  </outline>
</glyph>
<glyph name="brokenbar" format="1">
  <advance width="416"/>
  <unicode hex="00A6"/>
  <outline>
    <contour>
      <point x="135" y="-198" type="line"/>
      <point x="135" y="433" type="line"/>
      <point x="281" y="433" type="line"/>
      <point x="281" y="-198" type="line"/>
    </contour>
    <contour>
      <point x="281" y="883" type="line"/>
      <point x="135" y="883" type="line"/>
      <point x="135" y="1504" type="line"/>
      <point x="281" y="1504" type="line"/>
    </contour>
  </outline>
</glyph>
<glyph name="dieresis" format="1">
  <advance width="860"/>
  <unicode hex="00A8"/>
  <outline>
    <contour>
      <point x="436" y="1044" type="line"/>
    </contour>
    <contour>
      <point x="135" y="1375" type="line"/>
      <point x="310" y="1377" type="line"/>
      <point x="310" y="1190" type="line"/>
      <point x="135" y="1190" type="line"/>
    </contour>
    <contour>
      <point x="551" y="1377" type="line"/>
      <point x="725" y="1377" type="line"/>
      <point x="725" y="1190" type="line"/>
      <point x="551" y="1190" type="line"/>
    </contour>
    <contour>
      <point x="430" y="1023" type="line"/>
    </contour>
    <contour>
      <point x="430" y="1023" type="line" smooth="yes"/>
    </contour>
    <contour>
      <point x="430" y="1023" type="move" name="_top"/>
    </contour>
  </outline>
</glyph>
<glyph name="guillemotleft" format="1">
  <advance width="946"/>
  <unicode hex="00AB"/>
  <outline>
    <contour>
      <point x="894" y="251" type="line"/>
      <point x="449" y="552" type="line"/>
      <point x="449" y="749" type="line"/>
      <point x="894" y="1050" type="line"/>
      <point x="894" y="909" type="line"/>
      <point x="547" y="650" type="line"/>
      <point x="894" y="393" type="line"/>
    </contour>
    <contour>
      <point x="51" y="552" type="line"/>
      <point x="51" y="749" type="line"/>
      <point x="496" y="1050" type="line"/>
      <point x="496" y="909" type="line"/>
      <point x="149" y="650" type="line"/>
      <point x="496" y="393" type="line"/>
      <point x="496" y="251" type="line"/>
    </contour>
    <contour>
      <point x="520" y="1260" type="line"/>
    </contour>
  </outline>
</glyph>
<glyph name="macron" format="1">
  <advance width="724"/>
  <unicode hex="00AF"/>
  <outline>
    <contour>
      <point x="364" y="1024" type="line"/>
    </contour>
    <contour>
      <point x="135" y="1219" type="line"/>
      <point x="135" y="1329" type="line"/>
      <point x="589" y="1329" type="line"/>
      <point x="589" y="1219" type="line"/>
    </contour>
    <contour>
      <point x="362" y="1023" type="line"/>
    </contour>
    <contour>
      <point x="362" y="1023" type="line" smooth="yes"/>
    </contour>
    <contour>
      <point x="362" y="1023" type="move" name="_top"/>
    </contour>
  </outline>
</glyph>
<glyph name="acute" format="1">
  <advance width="494"/>
  <unicode hex="00B4"/>
  <outline>
    <contour>
      <point x="165" y="1023" type="line"/>
    </contour>
    <contour>
      <point x="254" y="1492" type="line"/>
      <point x="449" y="1492" type="line"/>
      <point x="141" y="1172" type="line"/>
      <point x="49" y="1172" type="line"/>
    </contour>
    <contour>
      <point x="249" y="1023" type="line"/>
    </contour>
    <contour>
      <point x="249" y="1023" type="line"/>
    </contour>
    <contour>
      <point x="249" y="1023" type="line" smooth="yes"/>
    </contour>
    <contour>
      <point x="249" y="1023" type="move" name="_top"/>
    </contour>
  </outline>
</glyph>
<glyph name="uni00B5" format="1">
  <advance width="1122"/>
  <unicode hex="00B5"/>
  <outline>
    <contour>
      <point x="828" y="436" type="curve" smooth="yes"/>
      <point x="828" y="1023" type="line"/>
      <point x="970" y="1023" type="line"/>
      <point x="970" y="0" type="line"/>
      <point x="833" y="0" type="line"/>
      <point x="829" y="159" type="line"/>
      <point x="741" y="21"/>
      <point x="604" y="-24"/>
      <point x="467" y="-24" type="curve" smooth="yes"/>
      <point x="152" y="-24"/>
      <point x="121" y="235"/>
      <point x="121" y="436" type="curve" smooth="yes"/>
      <point x="121" y="1023" type="line"/>
      <point x="268" y="1023" type="line"/>
      <point x="268" y="406" type="line" smooth="yes"/>
      <point x="268" y="209"/>
      <point x="321" y="87"/>
      <point x="492" y="87" type="curve" smooth="yes"/>
      <point x="755" y="87"/>
      <point x="828" y="331"/>
    </contour>
  </outline>
</glyph>
<glyph name="paragraph" format="1">
  <advance width="1170"/>
  <unicode hex="00B6"/>
  <outline>
    <contour>
      <point x="547" y="0" type="line"/>
      <point x="547" y="669" type="line"/>
      <point x="218" y="699"/>
      <point x="53" y="797"/>
      <point x="53" y="1076" type="curve" smooth="yes"/>
      <point x="53" y="1355"/>
      <point x="221" y="1464"/>
      <point x="775" y="1464" type="curve" smooth="yes"/>
      <point x="1126" y="1464" type="line"/>
      <point x="1126" y="1349" type="line"/>
      <point x="956" y="1349" type="line"/>
      <point x="956" y="0" type="line"/>
      <point x="806" y="0" type="line"/>
      <point x="806" y="659" type="line"/>
      <point x="770" y="659"/>
      <point x="729" y="658"/>
      <point x="697" y="659" type="curve"/>
      <point x="697" y="0" type="line"/>
    </contour>
  </outline>
</glyph>
<glyph name="cedilla" format="1">
  <advance width="435"/>
  <unicode hex="00B8"/>
  <outline>
    <contour>
      <point x="150" y="-174" type="line"/>
      <point x="150" y="-10" type="line"/>
      <point x="350" y="-10" type="line"/>
      <point x="350" y="-189" type="line" smooth="yes"/>
      <point x="350" y="-281"/>
      <point x="313" y="-390"/>
      <point x="214" y="-390" type="curve" smooth="yes"/>
      <point x="200" y="-390"/>
      <point x="186" y="-387"/>
      <point x="172" y="-381" type="curve"/>
      <point x="172" y="-316" type="line"/>
      <point x="187" y="-320"/>
      <point x="199" y="-324"/>
      <point x="209" y="-324" type="curve" smooth="yes"/>
      <point x="238" y="-324"/>
      <point x="249" y="-294"/>
      <point x="249" y="-174" type="curve"/>
    </contour>
    <contour>
      <point x="249" y="0" type="line"/>
    </contour>
    <contour>
      <point x="250.5" y="0" type="line" smooth="yes"/>
    </contour>
    <contour>
      <point x="250.5" y="0" type="move" name="_bottom"/>
    </contour>
  </outline>
</glyph>
<glyph name="guillemotright" format="1">
  <advance width="946"/>
  <unicode hex="00BB"/>
  <outline>
    <contour>
      <point x="53" y="1049" type="line"/>
      <point x="498" y="748" type="line"/>
      <point x="498" y="551" type="line"/>
      <point x="53" y="250" type="line"/>
      <point x="53" y="391" type="line"/>
      <point x="400" y="650" type="line"/>
      <point x="53" y="907" type="line"/>
    </contour>
    <contour>
      <point x="896" y="748" type="line"/>
      <point x="896" y="551" type="line"/>
      <point x="451" y="250" type="line"/>
      <point x="451" y="391" type="line"/>
      <point x="798" y="650" type="line"/>
      <point x="451" y="907" type="line"/>
      <point x="451" y="1049" type="line"/>
    </contour>
    <contour>
      <point x="427" y="251" type="line"/>
    </contour>
  </outline>
</glyph>
<glyph name="onequarter" format="1">
  <advance width="1403"/>
  <unicode hex="00BC"/>
  <outline>
    <contour>
      <point x="68" y="52" type="line"/>
      <point x="146" y="-14" type="line"/>
      <point x="1381" y="1415" type="line"/>
      <point x="1304" y="1481" type="line"/>
    </contour>
    <contour>
      <point x="302" y="1365" type="line"/>
      <point x="302" y="769" type="line"/>
      <point x="415" y="769" type="line"/>
      <point x="415" y="1464" type="line"/>
      <point x="312" y="1464" type="line"/>
      <point x="164" y="1397" type="line"/>
      <point x="185" y="1307" type="line"/>
    </contour>
    <contour>
      <point x="707" y="152" type="line"/>
      <point x="1058" y="152" type="line"/>
      <point x="1058" y="0" type="line"/>
      <point x="1173" y="0" type="line"/>
      <point x="1173" y="152" type="line"/>
      <point x="1273" y="152" type="line"/>
      <point x="1273" y="234" type="line"/>
      <point x="1173" y="234" type="line"/>
      <point x="1173" y="693" type="line"/>
      <point x="1027" y="693" type="line"/>
      <point x="707" y="220" type="line"/>
    </contour>
    <contour>
      <point x="1058" y="234" type="line"/>
      <point x="821" y="234" type="line"/>
      <point x="1058" y="585" type="line"/>
    </contour>
  </outline>
</glyph>
<glyph name="AE" format="1">
  <advance width="2272"/>
  <unicode hex="00C6"/>
  <outline>
    <contour>
      <point x="576" y="508" type="curve"/>
      <point x="1118" y="508" type="line"/>
      <point x="1118" y="1364" type="line"/>
      <point x="1071" y="1298"/>
      <point x="1023" y="1233"/>
      <point x="976" y="1167" type="curve"/>
      <point x="843" y="948"/>
      <point x="709" y="728"/>
    </contour>
    <contour>
      <point x="107" y="0" type="line"/>
      <point x="1014" y="1464" type="line"/>
      <point x="2149" y="1464" type="line"/>
      <point x="2149" y="1352" type="line"/>
      <point x="1262" y="1352" type="line"/>
      <point x="1262" y="838" type="line"/>
      <point x="1987" y="838" type="line"/>
      <point x="1987" y="800"/>
      <point x="1986" y="761"/>
      <point x="1986" y="723" type="curve"/>
      <point x="1262" y="723" type="line"/>
      <point x="1262" y="113" type="line"/>
      <point x="2159" y="113" type="line"/>
      <point x="2159" y="0" type="line"/>
      <point x="1115" y="0" type="line"/>
      <point x="1115" y="399" type="line"/>
      <point x="515" y="399" type="line"/>
      <point x="268" y="0" type="line"/>
    </contour>
    <contour>
      <point x="1136" y="1464" type="line"/>
    </contour>
    <contour>
      <point x="1136" y="1464" type="line"/>
    </contour>
    <contour>
      <point x="1136" y="1464" type="line" smooth="yes"/>
    </contour>
    <contour>
      <point x="1136" y="1464" type="move" name="top"/>
    </contour>
  </outline>
</glyph>
<glyph name="Eth" format="1">
  <advance width="1391"/>
  <unicode hex="00D0"/>
  <outline>
    <contour>
      <point x="0" y="702" type="line"/>
      <point x="0" y="788" type="line"/>
      <point x="140" y="788" type="line"/>
      <point x="140" y="1464" type="line"/>
      <point x="644" y="1464" type="line" smooth="yes"/>
      <point x="1056" y="1464"/>
      <point x="1270" y="1280"/>
      <point x="1270" y="738" type="curve" smooth="yes"/>
      <point x="1270" y="203"/>
      <point x="1075" y="0"/>
      <point x="637" y="0" type="curve" smooth="yes"/>
      <point x="140" y="0" type="line"/>
      <point x="140" y="702" type="line"/>
    </contour>
    <contour>
      <point x="645" y="1350" type="curve" smooth="yes"/>
      <point x="286" y="1350" type="line"/>
      <point x="286" y="788" type="line"/>
      <point x="454" y="788" type="line"/>
      <point x="454" y="702" type="line"/>
      <point x="286" y="702" type="line"/>
      <point x="286" y="114" type="line"/>
      <point x="589" y="114" type="line" smooth="yes"/>
      <point x="1000" y="114"/>
      <point x="1127" y="289"/>
      <point x="1127" y="737" type="curve" smooth="yes"/>
      <point x="1127" y="1130"/>
      <point x="1029" y="1350"/>
    </contour>
  </outline>
</glyph>
<glyph name="multiply" format="1">
  <advance width="734"/>
  <unicode hex="00D7"/>
  <outline>
    <contour>
      <point x="190" y="203" type="line"/>
      <point x="120" y="273" type="line"/>
      <point x="296" y="449" type="line"/>
      <point x="119" y="626" type="line"/>
      <point x="191" y="698" type="line"/>
      <point x="368" y="521" type="line"/>
      <point x="544" y="697" type="line"/>
      <point x="614" y="627" type="line"/>
      <point x="438" y="451" type="line"/>
      <point x="615" y="274" type="line"/>
      <point x="543" y="202" type="line"/>
      <point x="366" y="379" type="line"/>
    </contour>
  </outline>
</glyph>
<glyph name="Oslash" format="1">
  <advance width="1463"/>
  <unicode hex="00D8"/>
  <outline>
    <contour>
      <point x="320" y="-204" type="line"/>
      <point x="235" y="-160" type="line"/>
      <point x="1126" y="1658" type="line"/>
      <point x="1210" y="1614" type="line"/>
    </contour>
    <contour>
      <point x="732" y="1464" type="line"/>
    </contour>
    <contour>
      <point x="732" y="1464" type="line"/>
    </contour>
    <contour>
      <point x="732" y="1464" type="line" smooth="yes"/>
    </contour>
    <component base="O"/>
    <contour>
      <point x="732" y="1464" type="move" name="top"/>
    </contour>
  </outline>
</glyph>
<glyph name="Thorn" format="1">
  <advance width="1261"/>
  <unicode hex="00DE"/>
  <outline>
    <contour>
      <point x="140" y="0" type="line"/>
      <point x="140" y="1464" type="line"/>
      <point x="296" y="1464" type="line"/>
      <point x="296" y="1145" type="line"/>
      <point x="561" y="1145" type="line" smooth="yes"/>
      <point x="1030" y="1145"/>
      <point x="1203" y="1068"/>
      <point x="1203" y="779" type="curve" smooth="yes"/>
      <point x="1203" y="448"/>
      <point x="1007" y="383"/>
      <point x="502" y="383" type="curve" smooth="yes"/>
      <point x="290" y="383" type="line"/>
      <point x="290" y="0" type="line"/>
    </contour>
    <contour>
      <point x="296" y="1031" type="line"/>
      <point x="296" y="497" type="line"/>
      <point x="558" y="497" type="line"/>
      <point x="914" y="498"/>
      <point x="1055" y="532"/>
      <point x="1055" y="771" type="curve" smooth="yes"/>
      <point x="1055" y="1011"/>
      <point x="914" y="1031"/>
      <point x="538" y="1031" type="curve" smooth="yes"/>
    </contour>
  </outline>
</glyph>
<glyph name="germandbls" format="1">
  <advance width="1199"/>
  <unicode hex="00DF"/>
  <outline>
    <contour>
      <point x="130" y="0" type="line"/>
      <point x="130" y="1151" type="line" smooth="yes"/>
      <point x="130" y="1373"/>
      <point x="350" y="1492"/>
      <point x="568" y="1492" type="curve" smooth="yes"/>
      <point x="829.326830791" y="1492.0"/>
      <point x="940.0" y="1360.10256831"/>
      <point x="940" y="1203" type="curve" smooth="yes"/>
      <point x="940" y="949"/>
      <point x="585" y="890"/>
      <point x="585" y="828" type="curve"/>
      <point x="585" y="826"/>
      <point x="585" y="825"/>
      <point x="585" y="823" type="curve" smooth="yes"/>
      <point x="585" y="685"/>
      <point x="1121" y="654"/>
      <point x="1121" y="336" type="curve" smooth="yes"/>
      <point x="1121.0" y="110.777887409"/>
      <point x="1042.98091906" y="0.0"/>
      <point x="481" y="0" type="curve" smooth="yes"/>
      <point x="468" y="0"/>
      <point x="455" y="0"/>
      <point x="441" y="0" type="curve"/>
      <point x="441" y="117" type="line"/>
      <point x="894.768775096" y="117.0"/>
      <point x="975.0" y="196.38863236"/>
      <point x="975" y="332" type="curve" smooth="yes"/>
      <point x="975" y="572"/>
      <point x="441" y="589"/>
      <point x="441" y="816" type="curve" smooth="yes"/>
      <point x="441" y="1001"/>
      <point x="804" y="996"/>
      <point x="804" y="1209" type="curve" smooth="yes"/>
      <point x="804" y="1322"/>
      <point x="721" y="1388"/>
      <point x="565" y="1388" type="curve" smooth="yes"/>
      <point x="420" y="1388"/>
      <point x="276" y="1303"/>
      <point x="276" y="1140" type="curve" smooth="yes"/>
      <point x="276" y="0" type="line"/>
    </contour>
  </outline>
</glyph>
<glyph name="ae" format="1">
  <advance width="1742"/>
  <unicode hex="00E6"/>
  <outline>
    <contour>
      <point x="164" y="927" type="line"/>
      <point x="278" y="1006"/>
      <point x="397" y="1044"/>
      <point x="549" y="1044" type="curve" smooth="yes"/>
      <point x="713" y="1044"/>
      <point x="845" y="979"/>
      <point x="873" y="832" type="curve"/>
      <point x="934" y="966"/>
      <point x="1073" y="1044"/>
      <point x="1222" y="1044" type="curve" smooth="yes"/>
      <point x="1507" y="1044"/>
      <point x="1618" y="844"/>
      <point x="1618" y="572" type="curve" smooth="yes"/>
      <point x="1618" y="563"/>
      <point x="1617" y="525"/>
      <point x="1615" y="508" type="curve"/>
      <point x="927" y="494" type="line"/>
      <point x="927" y="272"/>
      <point x="994" y="81"/>
      <point x="1222" y="81" type="curve" smooth="yes"/>
      <point x="1398" y="81"/>
      <point x="1469" y="200"/>
      <point x="1500" y="317" type="curve"/>
      <point x="1597" y="277" type="line"/>
      <point x="1548" y="85"/>
      <point x="1400" y="-22"/>
      <point x="1226" y="-24" type="curve"/>
      <point x="1068" y="-24"/>
      <point x="932" y="57"/>
      <point x="874" y="185" type="curve"/>
      <point x="791" y="41"/>
      <point x="624" y="-25"/>
      <point x="460" y="-25" type="curve" smooth="yes"/>
      <point x="285" y="-25"/>
      <point x="115" y="58"/>
      <point x="115" y="251" type="curve" smooth="yes"/>
      <point x="115" y="507"/>
      <point x="339" y="573"/>
      <point x="644" y="579" type="curve" smooth="yes"/>
      <point x="658" y="579"/>
      <point x="769" y="586"/>
      <point x="783" y="586" type="curve"/>
      <point x="783" y="820"/>
      <point x="756" y="940"/>
      <point x="554" y="940" type="curve" smooth="yes"/>
      <point x="393" y="940"/>
      <point x="321" y="894"/>
      <point x="234" y="838" type="curve"/>
    </contour>
    <contour>
      <point x="802" y="318" type="curve" smooth="yes"/>
      <point x="802" y="360"/>
      <point x="792" y="462"/>
      <point x="792" y="487" type="curve"/>
      <point x="651" y="480" type="line" smooth="yes"/>
      <point x="432" y="469"/>
      <point x="257" y="440"/>
      <point x="257" y="256" type="curve" smooth="yes"/>
      <point x="257" y="134"/>
      <point x="365" y="80"/>
      <point x="471" y="80" type="curve" smooth="yes"/>
      <point x="638" y="80"/>
      <point x="802" y="158"/>
    </contour>
    <contour>
      <point x="1481" y="606" type="line"/>
      <point x="1480" y="816"/>
      <point x="1409" y="941"/>
      <point x="1218" y="941" type="curve" smooth="yes"/>
      <point x="1034" y="941"/>
      <point x="938" y="774"/>
      <point x="928" y="592" type="curve"/>
    </contour>
    <contour>
      <point x="871" y="1023" type="line" smooth="yes"/>
    </contour>
    <contour>
      <point x="871" y="1023" type="move" name="top"/>
    </contour>
  </outline>
</glyph>
<glyph name="eth" format="1">
  <advance width="1074"/>
  <unicode hex="00F0"/>
  <outline>
    <contour>
      <point x="469" y="1002" type="line"/>
      <point x="619" y="1099" type="line"/>
      <point x="525" y="1170"/>
      <point x="405" y="1199"/>
      <point x="274" y="1199" type="curve"/>
      <point x="295" y="1292" type="line"/>
      <point x="462" y="1292"/>
      <point x="606" y="1252"/>
      <point x="718" y="1163" type="curve"/>
      <point x="894" y="1278" type="line"/>
      <point x="947" y="1203" type="line"/>
      <point x="785" y="1098" type="line"/>
      <point x="897" y="970"/>
      <point x="962" y="775"/>
      <point x="962" y="498" type="curve" smooth="yes"/>
      <point x="962" y="218"/>
      <point x="819" y="-25"/>
      <point x="519" y="-25" type="curve" smooth="yes"/>
      <point x="257" y="-25"/>
      <point x="116" y="196"/>
      <point x="116" y="410" type="curve" smooth="yes"/>
      <point x="116" y="674"/>
      <point x="302" y="810"/>
      <point x="520" y="810" type="curve" smooth="yes"/>
      <point x="619" y="810"/>
      <point x="728" y="775"/>
      <point x="820" y="704" type="curve"/>
      <point x="801" y="850"/>
      <point x="754" y="958"/>
      <point x="688" y="1035" type="curve"/>
      <point x="522" y="927" type="line"/>
    </contour>
    <contour>
      <point x="826" y="580" type="curve"/>
      <point x="771" y="645"/>
      <point x="625" y="698"/>
      <point x="531" y="698" type="curve" smooth="yes"/>
      <point x="377" y="698"/>
      <point x="255" y="620"/>
      <point x="255" y="407" type="curve" smooth="yes"/>
      <point x="255" y="184"/>
      <point x="390" y="84"/>
      <point x="528" y="84" type="curve" smooth="yes"/>
      <point x="739" y="84"/>
      <point x="833" y="257"/>
      <point x="833" y="506" type="curve" smooth="yes"/>
      <point x="833" y="530"/>
      <point x="832" y="554"/>
    </contour>
  </outline>
</glyph>
<glyph name="divide" format="1">
  <advance width="1024"/>
  <unicode hex="00F7"/>
  <outline>
    <contour>
      <point x="565" y="385" type="line"/>
      <point x="565" y="171" type="line"/>
      <point x="392" y="171" type="line"/>
      <point x="392" y="385" type="line"/>
    </contour>
    <contour>
      <point x="392" y="1024" type="line"/>
      <point x="565" y="1024" type="line"/>
      <point x="565" y="808" type="line"/>
      <point x="392" y="808" type="line"/>
    </contour>
    <contour>
      <point x="803" y="563" type="line"/>
      <point x="803" y="649" type="line"/>
      <point x="135" y="649" type="line"/>
      <point x="135" y="563" type="line"/>
    </contour>
  </outline>
</glyph>
<glyph name="oslash" format="1">
  <advance width="1068"/>
  <unicode hex="00F8"/>
  <outline>
    <contour>
      <point x="237" y="720"/>
      <point x="298" y="940"/>
      <point x="532" y="940" type="curve" smooth="yes"/>
      <point x="593" y="940"/>
      <point x="643" y="925"/>
      <point x="683" y="898" type="curve"/>
      <point x="334" y="164" type="line"/>
      <point x="260" y="247"/>
      <point x="237" y="382"/>
      <point x="237" y="513" type="curve" smooth="yes"/>
    </contour>
    <contour>
      <point x="828" y="301"/>
      <point x="766" y="81"/>
      <point x="533" y="81" type="curve" smooth="yes"/>
      <point x="481" y="81"/>
      <point x="437" y="92"/>
      <point x="400" y="112" type="curve"/>
      <point x="745" y="838" type="line"/>
      <point x="807" y="755"/>
      <point x="828" y="631"/>
      <point x="828" y="511" type="curve" smooth="yes"/>
    </contour>
    <contour>
      <point x="797" y="-24"/>
      <point x="970" y="162"/>
      <point x="970" y="513" type="curve" smooth="yes"/>
      <point x="970" y="725"/>
      <point x="905" y="872"/>
      <point x="801" y="956" type="curve"/>
      <point x="906" y="1178" type="line"/>
      <point x="834" y="1216" type="line"/>
      <point x="732" y="1001" type="line"/>
      <point x="673" y="1030"/>
      <point x="606" y="1044"/>
      <point x="533" y="1044" type="curve" smooth="yes"/>
      <point x="279" y="1044"/>
      <point x="94" y="872"/>
      <point x="94" y="510" type="curve" smooth="yes"/>
      <point x="94" y="290"/>
      <point x="163" y="135"/>
      <point x="280" y="50" type="curve"/>
      <point x="181" y="-159" type="line"/>
      <point x="254" y="-197" type="line"/>
      <point x="352" y="10" type="line"/>
      <point x="406" y="-13"/>
      <point x="466" y="-24"/>
      <point x="532" y="-24" type="curve" smooth="yes"/>
    </contour>
    <contour>
      <point x="534" y="1023" type="move" name="top"/>
    </contour>
  </outline>
</glyph>
<glyph name="thorn" format="1">
  <advance width="1095"/>
  <unicode hex="00FE"/>
  <outline>
    <contour>
      <point x="281" y="1464" type="line"/>
      <point x="281" y="874" type="line"/>
      <point x="344" y="982"/>
      <point x="440" y="1044"/>
      <point x="582" y="1044" type="curve" smooth="yes"/>
      <point x="857" y="1044"/>
      <point x="976" y="812"/>
      <point x="976" y="520" type="curve" smooth="yes"/>
      <point x="976" y="217"/>
      <point x="855" y="-21"/>
      <point x="589" y="-24" type="curve"/>
      <point x="450" y="-24"/>
      <point x="340" y="40"/>
      <point x="281" y="154" type="curve"/>
      <point x="282" y="110"/>
      <point x="282" y="65"/>
      <point x="282" y="21" type="curve" smooth="yes"/>
      <point x="282" y="-378" type="line"/>
      <point x="140" y="-394" type="line"/>
      <point x="140" y="1464" type="line"/>
    </contour>
    <contour>
      <point x="831" y="521" type="curve" smooth="yes"/>
      <point x="831" y="810"/>
      <point x="702" y="943"/>
      <point x="568" y="943" type="curve" smooth="yes"/>
      <point x="427" y="943"/>
      <point x="282" y="793"/>
      <point x="282" y="519" type="curve" smooth="yes"/>
      <point x="282" y="294"/>
      <point x="336" y="81"/>
      <point x="568" y="81" type="curve" smooth="yes"/>
      <point x="733" y="81"/>
      <point x="831" y="243"/>
    </contour>
  </outline>
</glyph>
<glyph name="hcircumflex" format="1">
  <advance width="1106"/>
  <unicode hex="0125"/>
  <outline>
    <contour>
      <point x="587" y="1823" type="line"/>
      <point x="742" y="1823" type="line"/>
      <point x="907" y="1503" type="line"/>
      <point x="815" y="1503" type="line"/>
      <point x="654" y="1721" type="line"/>
      <point x="494" y="1503" type="line"/>
      <point x="402" y="1503" type="line"/>
    </contour>
    <component base="h"/>
  </outline>
</glyph>
<glyph name="Hbar" format="1">
  <advance width="1457"/>
  <unicode hex="0126"/>
  <outline>
    <contour>
      <point x="88.2998" y="1143.6" type="line"/>
      <point x="88.2998" y="1229.6" type="line"/>
      <point x="1389.3" y="1229.6" type="line"/>
      <point x="1389.3" y="1143.6" type="line"/>
    </contour>
    <contour>
      <point x="1164" y="836" type="line"/>
      <point x="1164" y="1464" type="line"/>
      <point x="1309" y="1464" type="line"/>
      <point x="1309" y="0" type="line"/>
      <point x="1164" y="0" type="line"/>
      <point x="1164" y="720" type="line"/>
      <point x="294" y="720" type="line"/>
      <point x="294" y="0" type="line"/>
      <point x="148" y="0" type="line"/>
      <point x="148" y="1464" type="line"/>
      <point x="294" y="1464" type="line"/>
      <point x="294" y="836" type="line"/>
    </contour>
  </outline>
</glyph>
<glyph name="dotlessi" format="1">
  <advance width="411"/>
  <unicode hex="0131"/>
  <outline>
    <contour>
      <point x="140" y="0" type="line"/>
      <point x="140" y="1023" type="line"/>
      <point x="282" y="1023" type="line"/>
      <point x="282" y="0" type="line"/>
    </contour>
    <contour>
      <point x="206" y="1023" type="line"/>
    </contour>
    <contour>
      <point x="370" y="10" type="line"/>
    </contour>
    <contour>
      <point x="206" y="1023" type="line" smooth="yes"/>
    </contour>
    <contour>
      <point x="370" y="10" type="line" smooth="yes"/>
    </contour>
    <contour>
      <point x="206" y="1023" type="move" name="top"/>
    </contour>
    <contour>
      <point x="370" y="10" type="move" name="ogonek"/>
    </contour>
  </outline>
</glyph>
<glyph name="kgreenlandic" format="1">
  <advance width="1080"/>
  <unicode hex="0138"/>
  <outline>
    <contour>
      <point x="807" y="1023" type="line"/>
      <point x="969" y="1023" type="line"/>
      <point x="609" y="624" type="line"/>
      <point x="1028" y="0" type="line"/>
      <point x="868" y="0" type="line"/>
      <point x="516" y="538" type="line"/>
      <point x="282" y="299" type="line"/>
      <point x="282" y="0" type="line"/>
      <point x="140" y="0" type="line"/>
      <point x="140" y="1024" type="line"/>
      <point x="281" y="1024" type="line"/>
      <point x="281" y="446" type="line"/>
    </contour>
  </outline>
</glyph>
<glyph name="Lslash" format="1">
  <advance width="1055"/>
  <unicode hex="0141"/>
  <outline>
    <contour>
      <point x="-1" y="658" type="line"/>
      <point x="-1" y="784" type="line"/>
      <point x="140" y="847" type="line"/>
      <point x="140" y="1464" type="line"/>
      <point x="286" y="1464" type="line"/>
      <point x="286" y="913" type="line"/>
      <point x="532" y="1024" type="line"/>
      <point x="532" y="898" type="line"/>
      <point x="286" y="787" type="line"/>
      <point x="286" y="113" type="line"/>
      <point x="1033" y="113" type="line"/>
      <point x="1033" y="0" type="line"/>
      <point x="140" y="0" type="line"/>
      <point x="140" y="721" type="line"/>
    </contour>
  </outline>
</glyph>
<glyph name="lslash" format="1">
  <advance width="421"/>
  <unicode hex="0142"/>
  <outline>
    <contour>
      <point x="-26" y="662" type="line"/>
      <point x="-26" y="797" type="line"/>
      <point x="140" y="879" type="line"/>
      <point x="140" y="1474" type="line"/>
      <point x="283" y="1474" type="line"/>
      <point x="283" y="949" type="line"/>
      <point x="448" y="1024" type="line"/>
      <point x="448" y="889" type="line"/>
      <point x="283" y="814" type="line"/>
      <point x="283" y="-1" type="line"/>
      <point x="140" y="-1" type="line"/>
      <point x="140" y="744" type="line"/>
    </contour>
  </outline>
</glyph>
<glyph name="OE" format="1">
  <advance width="2171"/>
  <unicode hex="0152"/>
  <outline>
    <contour>
      <point x="265" y="1130"/>
      <point x="368" y="1374"/>
      <point x="720" y="1374" type="curve" smooth="yes"/>
      <point x="1074" y="1374"/>
      <point x="1157" y="1130"/>
      <point x="1157" y="740" type="curve" smooth="yes"/>
      <point x="1157" y="298"/>
      <point x="1060" y="93"/>
      <point x="721" y="93" type="curve" smooth="yes"/>
      <point x="383" y="93"/>
      <point x="265" y="302"/>
      <point x="265" y="741" type="curve" smooth="yes"/>
    </contour>
    <contour>
      <point x="2121" y="113" type="line"/>
      <point x="1310" y="113" type="line"/>
      <point x="1310" y="723" type="line"/>
      <point x="1996" y="723" type="line"/>
      <point x="1996" y="838" type="line"/>
      <point x="1310" y="838" type="line"/>
      <point x="1310" y="1352" type="line"/>
      <point x="2110" y="1352" type="line"/>
      <point x="2110" y="1464" type="line"/>
      <point x="1163" y="1464" type="line"/>
      <point x="1163" y="1464"/>
      <point x="1164" y="1352"/>
      <point x="1163" y="1288" type="curve"/>
      <point x="1073" y="1430"/>
      <point x="926" y="1491"/>
      <point x="721" y="1491" type="curve" smooth="yes"/>
      <point x="342" y="1491"/>
      <point x="112" y="1282"/>
      <point x="112" y="740" type="curve" smooth="yes"/>
      <point x="112" y="186"/>
      <point x="337" y="-25"/>
      <point x="720" y="-25" type="curve" smooth="yes"/>
      <point x="929" y="-25"/>
      <point x="1074" y="37"/>
      <point x="1164" y="180" type="curve"/>
      <point x="1164" y="117"/>
      <point x="1165" y="1"/>
      <point x="1164" y="0" type="curve"/>
      <point x="2121" y="0" type="line"/>
    </contour>
    <contour>
      <point x="1095" y="1464" type="move" name="top"/>
    </contour>
  </outline>
</glyph>
<glyph name="circumflex" format="1">
  <advance width="838"/>
  <unicode hex="02C6"/>
  <outline>
    <contour>
      <point x="327" y="1492" type="line"/>
      <point x="522" y="1492" type="line"/>
      <point x="697" y="1172" type="line"/>
      <point x="605" y="1172" type="line"/>
      <point x="424" y="1390" type="line"/>
      <point x="244" y="1172" type="line"/>
      <point x="152" y="1172" type="line"/>
    </contour>
    <contour>
      <point x="418.5" y="1023" type="line"/>
    </contour>
    <contour>
      <point x="418.5" y="1023" type="line" smooth="yes"/>
    </contour>
    <contour>
      <point x="418.5" y="1023" type="move" name="_top"/>
    </contour>
  </outline>
</glyph>
<glyph name="caron" format="1">
  <advance width="835"/>
  <unicode hex="02C7"/>
  <outline>
    <contour>
      <point x="523" y="1172" type="line"/>
      <point x="328" y="1172" type="line"/>
      <point x="153" y="1492" type="line"/>
      <point x="245" y="1492" type="line"/>
      <point x="425" y="1274" type="line"/>
      <point x="606" y="1492" type="line"/>
      <point x="698" y="1492" type="line"/>
    </contour>
    <contour>
      <point x="426" y="1023" type="line"/>
    </contour>
    <contour>
      <point x="426" y="1023" type="line" smooth="yes"/>
    </contour>
    <contour>
      <point x="426" y="1023" type="move" name="_top"/>
    </contour>
  </outline>
</glyph>
<glyph name="breve" format="1">
  <advance width="805"/>
  <unicode hex="02D8"/>
  <outline>
    <contour>
      <point x="402" y="1183" type="curve" smooth="yes"/>
      <point x="265" y="1183"/>
      <point x="130" y="1268"/>
      <point x="126" y="1438" type="curve"/>
      <point x="252" y="1438" type="line"/>
      <point x="255" y="1345"/>
      <point x="328" y="1299"/>
      <point x="402" y="1299" type="curve" smooth="yes"/>
      <point x="476" y="1299"/>
      <point x="549" y="1345"/>
      <point x="552" y="1438" type="curve"/>
      <point x="678" y="1438" type="line"/>
      <point x="674" y="1268"/>
      <point x="539" y="1183"/>
    </contour>
    <contour>
      <point x="402" y="1023" type="line" smooth="yes"/>
    </contour>
    <contour>
      <point x="402" y="1023" type="move" name="_top"/>
    </contour>
  </outline>
</glyph>
<glyph name="ring" format="1">
  <advance width="728"/>
  <unicode hex="02DA"/>
  <outline>
    <contour>
      <point x="364" y="1592" type="curve" smooth="yes"/>
      <point x="217" y="1592"/>
      <point x="143" y="1482"/>
      <point x="143" y="1374" type="curve" smooth="yes"/>
      <point x="143" y="1266"/>
      <point x="216" y="1160"/>
      <point x="364" y="1160" type="curve" smooth="yes"/>
      <point x="515" y="1160"/>
      <point x="591" y="1268"/>
      <point x="591" y="1376" type="curve" smooth="yes"/>
      <point x="591" y="1484"/>
      <point x="516" y="1592"/>
    </contour>
    <contour>
      <point x="241" y="1376" type="curve" smooth="yes"/>
      <point x="241" y="1439"/>
      <point x="282" y="1502"/>
      <point x="364" y="1502" type="curve" smooth="yes"/>
      <point x="446" y="1502"/>
      <point x="487" y="1439"/>
      <point x="487" y="1376" type="curve" smooth="yes"/>
      <point x="487" y="1313"/>
      <point x="446" y="1249"/>
      <point x="364" y="1249" type="curve" smooth="yes"/>
      <point x="282" y="1249"/>
      <point x="241" y="1313"/>
    </contour>
    <contour>
      <point x="364" y="1023" type="line" smooth="yes"/>
    </contour>
    <contour>
      <point x="367" y="1023" type="move" name="_top"/>
    </contour>
  </outline>
</glyph>
<glyph name="ogonek" format="1">
  <advance width="462"/>
  <unicode hex="02DB"/>
  <outline>
    <contour>
      <point x="276" y="0" type="line"/>
    </contour>
    <contour>
      <point x="315" y="0" type="line"/>
      <point x="281" y="-74"/>
      <point x="238" y="-161"/>
      <point x="238" y="-219" type="curve" smooth="yes"/>
      <point x="238" y="-257"/>
      <point x="257" y="-283"/>
      <point x="311" y="-283" type="curve" smooth="yes"/>
      <point x="321" y="-283"/>
      <point x="333" y="-281"/>
      <point x="346" y="-278" type="curve"/>
      <point x="346" y="-361" type="line"/>
      <point x="322" y="-367"/>
      <point x="300" y="-369"/>
      <point x="281" y="-369" type="curve" smooth="yes"/>
      <point x="175" y="-369"/>
      <point x="117" y="-309"/>
      <point x="117" y="-241" type="curve" smooth="yes"/>
      <point x="117" y="-152"/>
      <point x="197" y="-34"/>
      <point x="244" y="0" type="curve"/>
    </contour>
    <contour>
      <point x="346" y="10" type="line"/>
    </contour>
    <contour>
      <point x="346" y="10" type="line" smooth="yes"/>
    </contour>
    <contour>
      <point x="346" y="10" type="move" name="_ogonek"/>
    </contour>
  </outline>
</glyph>
<glyph name="tilde" format="1">
  <advance width="798"/>
  <unicode hex="02DC"/>
  <outline>
    <contour>
      <point x="223" y="1200" type="curve"/>
      <point x="127" y="1200" type="line"/>
      <point x="125" y="1215"/>
      <point x="125" y="1229"/>
      <point x="125" y="1241" type="curve" smooth="yes"/>
      <point x="125" y="1370"/>
      <point x="196" y="1391"/>
      <point x="253" y="1391" type="curve" smooth="yes"/>
      <point x="331" y="1391"/>
      <point x="477" y="1299"/>
      <point x="537" y="1299" type="curve" smooth="yes"/>
      <point x="560" y="1299"/>
      <point x="576" y="1336"/>
      <point x="576" y="1395" type="curve"/>
      <point x="673" y="1395" type="line"/>
      <point x="674" y="1383"/>
      <point x="675" y="1371"/>
      <point x="675" y="1360" type="curve" smooth="yes"/>
      <point x="675" y="1239"/>
      <point x="598" y="1202"/>
      <point x="540" y="1202" type="curve" smooth="yes"/>
      <point x="446" y="1202"/>
      <point x="331" y="1288"/>
      <point x="273" y="1288" type="curve" smooth="yes"/>
      <point x="252" y="1288"/>
      <point x="223" y="1262"/>
    </contour>
    <contour>
      <point x="400" y="1023" type="line" smooth="yes"/>
    </contour>
    <contour>
      <point x="400" y="1023" type="move" name="_top"/>
    </contour>
  </outline>
</glyph>
<glyph name="hungarumlaut" format="1">
  <advance width="745"/>
  <unicode hex="02DD"/>
  <outline>
    <contour>
      <point x="192" y="1492" type="line"/>
      <point x="381" y="1492" type="line"/>
      <point x="153" y="1172" type="line"/>
      <point x="87" y="1172" type="line"/>
    </contour>
    <contour>
      <point x="490" y="1492" type="line"/>
      <point x="685" y="1492" type="line"/>
      <point x="428" y="1172" type="line"/>
      <point x="355" y="1172" type="line"/>
    </contour>
    <contour>
      <point x="376" y="1023" type="line"/>
    </contour>
    <contour>
      <point x="376" y="1023" type="line" smooth="yes"/>
    </contour>
    <contour>
      <point x="386" y="1023" type="move" name="_top"/>
    </contour>
  </outline>
</glyph>
<glyph name="uni0307" format="1">
  <advance width="539"/>
  <unicode hex="0307"/>
  <outline>
    <contour>
      <point x="270" y="1268" type="curve" smooth="yes"/>
      <point x="188.72" y="1268"/>
      <point x="147.92" y="1330.41"/>
      <point x="147.92" y="1392.74" type="curve" smooth="yes"/>
      <point x="147.92" y="1454.91"/>
      <point x="188.507" y="1517"/>
      <point x="270" y="1517" type="curve" smooth="yes"/>
      <point x="351.497" y="1517"/>
      <point x="392.08" y="1454.92"/>
      <point x="392.08" y="1392.75" type="curve" smooth="yes"/>
      <point x="392.08" y="1330.42"/>
      <point x="351.275" y="1268"/>
    </contour>
  </outline>
</glyph>
<glyph name="uni030F" format="1">
  <advance width="744"/>
  <unicode hex="030F"/>
  <outline>
    <contour>
      <point x="61" y="1492" type="line"/>
      <point x="256" y="1492" type="line"/>
      <point x="381" y="1172" type="line"/>
      <point x="289" y="1172" type="line"/>
    </contour>
    <contour>
      <point x="359" y="1492" type="line"/>
      <point x="554" y="1492" type="line"/>
      <point x="679" y="1172" type="line"/>
      <point x="587" y="1172" type="line"/>
    </contour>
  </outline>
</glyph>
<glyph name="uni0311" format="1">
  <advance width="805"/>
  <unicode hex="0311"/>
  <outline>
    <contour>
      <point x="402" y="1438" type="curve" smooth="yes"/>
      <point x="539" y="1438"/>
      <point x="674" y="1353"/>
      <point x="678" y="1183" type="curve"/>
      <point x="552" y="1183" type="line"/>
      <point x="549" y="1276"/>
      <point x="476" y="1322"/>
      <point x="402" y="1322" type="curve" smooth="yes"/>
      <point x="328" y="1322"/>
      <point x="255" y="1276"/>
      <point x="252" y="1183" type="curve"/>
      <point x="126" y="1183" type="line"/>
      <point x="130" y="1353"/>
      <point x="265" y="1438"/>
    </contour>
  </outline>
</glyph>
<glyph name="commaaccent" format="1">
  <advance width="444"/>
  <unicode hex="0326"/>
  <outline>
    <contour>
      <point x="208" y="0" type="line"/>
    </contour>
    <contour>
      <point x="134" y="-86" type="line"/>
      <point x="325" y="-86" type="line"/>
      <point x="324" y="-171" type="line"/>
      <point x="319" y="-329"/>
      <point x="295" y="-468"/>
      <point x="163" y="-559" type="curve"/>
      <point x="114" y="-497" type="line"/>
      <point x="139" y="-477"/>
      <point x="191" y="-410"/>
      <point x="194" y="-289" type="curve"/>
      <point x="134" y="-276" type="line"/>
    </contour>
    <contour>
      <point x="219.5" y="0" type="line"/>
    </contour>
    <contour>
      <point x="219.5" y="0" type="line" smooth="yes"/>
    </contour>
    <contour>
      <point x="219.5" y="0" type="move" name="_bottom"/>
    </contour>
  </outline>
</glyph>
<glyph name="uni0326" format="1">
  <advance width="409"/>
  <unicode hex="0326"/>
  <outline>
    <contour>
      <point x="210" y="-168" type="curve"/>
      <point x="100" y="-168" type="line"/>
      <point x="100" y="0" type="line"/>
      <point x="300" y="0" type="line"/>
      <point x="300" y="-160" type="line" smooth="yes"/>
      <point x="300" y="-279"/>
      <point x="233" y="-397"/>
      <point x="190" y="-397" type="curve"/>
      <point x="143" y="-375" type="line"/>
      <point x="201" y="-332"/>
      <point x="209.152" y="-219.067"/>
    </contour>
  </outline>
</glyph>
<glyph name="mu" format="1">
  <advance width="1119"/>
  <unicode hex="03BC"/>
  <outline>
    <contour>
      <point x="842" y="436" type="curve" smooth="yes"/>
      <point x="842" y="1023" type="line"/>
      <point x="984" y="1023" type="line"/>
      <point x="984" y="0" type="line"/>
      <point x="847" y="0" type="line"/>
      <point x="843" y="159" type="line"/>
      <point x="721" y="-34"/>
      <point x="443" y="-86"/>
      <point x="282" y="57" type="curve"/>
      <point x="282" y="-194" type="line"/>
      <point x="135" y="-194" type="line"/>
      <point x="135" y="1023" type="line"/>
      <point x="282" y="1023" type="line"/>
      <point x="282" y="356" type="line" smooth="yes"/>
      <point x="282" y="189"/>
      <point x="335" y="87"/>
      <point x="506" y="87" type="curve" smooth="yes"/>
      <point x="769" y="87"/>
      <point x="842" y="331"/>
    </contour>
  </outline>
</glyph>
<glyph name="quoteleft" format="1">
  <advance width="461"/>
  <unicode hex="2018"/>
  <outline>
    <contour>
      <point x="265" y="1469" type="curve"/>
      <point x="287" y="1457"/>
      <point x="310" y="1444"/>
      <point x="334" y="1431" type="curve"/>
      <point x="309.258" y="1367.38"/>
      <point x="256" y="1297.97"/>
      <point x="256" y="1200" type="curve"/>
      <point x="330" y="1187" type="line"/>
      <point x="330" y="1122"/>
      <point x="330" y="1058"/>
      <point x="331" y="993" type="curve"/>
      <point x="133" y="992" type="line"/>
      <point x="129" y="1089" type="line"/>
      <point x="129" y="1235"/>
      <point x="148" y="1371"/>
    </contour>
  </outline>
</glyph>
<glyph name="quoteright" format="1">
  <advance width="438"/>
  <unicode hex="2019"/>
  <outline>
    <contour>
      <point x="129" y="1302" type="curve"/>
      <point x="147" y="1467" type="line"/>
      <point x="321" y="1466" type="line"/>
      <point x="317" y="1286"/>
      <point x="320" y="1104"/>
      <point x="160" y="991" type="curve"/>
      <point x="111" y="1054" type="line"/>
      <point x="136" y="1077"/>
      <point x="187" y="1144"/>
      <point x="190" y="1264" type="curve"/>
      <point x="170" y="1276"/>
      <point x="150" y="1290"/>
    </contour>
  </outline>
</glyph>
<glyph name="quotesinglbase" format="1">
  <advance width="436"/>
  <unicode hex="201A"/>
  <outline>
    <contour>
      <point x="128" y="-71" type="curve"/>
      <point x="146" y="93" type="line"/>
      <point x="320" y="93" type="line"/>
      <point x="316" y="-87"/>
      <point x="319" y="-269"/>
      <point x="159" y="-382" type="curve"/>
      <point x="110" y="-319" type="line"/>
      <point x="135" y="-296"/>
      <point x="186" y="-229"/>
      <point x="189" y="-109" type="curve"/>
      <point x="169" y="-97"/>
      <point x="149" y="-83"/>
    </contour>
  </outline>
</glyph>
<glyph name="quotedblleft" format="1">
  <advance width="744"/>
  <unicode hex="201C"/>
  <outline>
    <contour>
      <point x="579" y="1473" type="curve"/>
      <point x="628" y="1410" type="line"/>
      <point x="603" y="1387"/>
      <point x="550" y="1319"/>
      <point x="547" y="1196" type="curve"/>
      <point x="615" y="1183" type="line"/>
      <point x="613" y="1120"/>
      <point x="611" y="1058"/>
      <point x="610" y="997" type="curve"/>
      <point x="417" y="995" type="line"/>
      <point x="418" y="1084" type="line"/>
      <point x="423" y="1242"/>
      <point x="445" y="1378"/>
    </contour>
    <contour>
      <point x="285" y="1473" type="curve"/>
      <point x="334" y="1410" type="line"/>
      <point x="309" y="1387"/>
      <point x="256" y="1319"/>
      <point x="253" y="1197" type="curve"/>
      <point x="322" y="1183" type="line"/>
      <point x="316" y="997" type="line"/>
      <point x="123" y="995" type="line"/>
      <point x="125" y="1084" type="line" smooth="yes"/>
      <point x="128" y="1240"/>
      <point x="151" y="1379"/>
    </contour>
  </outline>
</glyph>
<glyph name="quotedblright" format="1">
  <advance width="729"/>
  <unicode hex="201D"/>
  <outline>
    <contour>
      <point x="420" y="1302" type="curve"/>
      <point x="438" y="1467" type="line"/>
      <point x="613" y="1466" type="line"/>
      <point x="608" y="1287"/>
      <point x="611" y="1103"/>
      <point x="452" y="991" type="curve"/>
      <point x="401" y="1054" type="line"/>
      <point x="426" y="1075"/>
      <point x="478" y="1142"/>
      <point x="481" y="1263" type="curve"/>
      <point x="460" y="1276"/>
      <point x="441" y="1291"/>
    </contour>
    <contour>
      <point x="128" y="1302" type="curve"/>
      <point x="146" y="1467" type="line"/>
      <point x="321" y="1466" type="line"/>
      <point x="317" y="1286"/>
      <point x="319" y="1104"/>
      <point x="159" y="991" type="curve"/>
      <point x="109" y="1054" type="line"/>
      <point x="135" y="1077"/>
      <point x="186" y="1144"/>
      <point x="189" y="1264" type="curve"/>
      <point x="169" y="1276"/>
      <point x="149" y="1290"/>
    </contour>
  </outline>
</glyph>
<glyph name="Euro" format="1">
  <advance width="1357"/>
  <unicode hex="20AC"/>
  <outline>
    <contour>
      <point x="1224" y="340" type="curve"/>
      <point x="1102" y="379" type="line"/>
      <point x="1039" y="205"/>
      <point x="944" y="97"/>
      <point x="719" y="95" type="curve"/>
      <point x="465" y="95"/>
      <point x="310" y="262"/>
      <point x="275" y="586" type="curve"/>
      <point x="641" y="586" type="line"/>
      <point x="641" y="672" type="line"/>
      <point x="268" y="672" type="line"/>
      <point x="267" y="694"/>
      <point x="267" y="778"/>
      <point x="268" y="796" type="curve"/>
      <point x="641" y="796" type="line"/>
      <point x="641" y="882" type="line"/>
      <point x="274" y="882" type="line"/>
      <point x="305" y="1189"/>
      <point x="444" y="1376"/>
      <point x="718" y="1376" type="curve" smooth="yes"/>
      <point x="954" y="1376"/>
      <point x="1038" y="1254"/>
      <point x="1085" y="1073" type="curve"/>
      <point x="1219" y="1104" type="line"/>
      <point x="1144" y="1376"/>
      <point x="949" y="1493"/>
      <point x="712" y="1493" type="curve" smooth="yes"/>
      <point x="396" y="1493"/>
      <point x="163" y="1301"/>
      <point x="121" y="882" type="curve"/>
      <point x="-13" y="882" type="line"/>
      <point x="-13" y="796" type="line"/>
      <point x="115" y="796" type="line"/>
      <point x="114" y="778"/>
      <point x="114" y="694"/>
      <point x="115" y="672" type="curve"/>
      <point x="-13" y="672" type="line"/>
      <point x="-13" y="586" type="line"/>
      <point x="122" y="586" type="line"/>
      <point x="168" y="159"/>
      <point x="411" y="-23"/>
      <point x="716" y="-23" type="curve" smooth="yes"/>
      <point x="1012" y="-23"/>
      <point x="1153" y="108"/>
    </contour>
  </outline>
</glyph>
